<svg width="180.87817" height="540.93939" viewBox="0 0 180.87817 540.93939" xmlns="http://www.w3.org/2000/svg">
    <defs/>
    <path id="path911" fill="#e2d879" stroke="none" transform="matrix(0.5415425240567512 -0.8406733578734626 0.8406733578734626 0.5415425240567512 -257.23198787432233 342.84090878770513)" d="M 120.43 311.79 C 120.43 311.79 111.43 302.16 88.26 316.31 C 65.09 330.46 85.12 356.45 61.2 376.31 C 37.28 396.17 24.65 404.06 24.65 404.06 L 136.52 325.06 Z"/>
    <path id="path913" fill="#e2d879" stroke="none" transform="matrix(0.5415425240567512 -0.8406733578734626 0.8406733578734626 0.5415425240567512 -257.23198787432233 342.84090878770513)" d="M 142.71 342.81 C 142.71 342.81 148.96 354.39 128.14 371.81 C 107.32 389.23 89.14 361.95 62.63 378.26 C 36.12 394.57 24.63 404.03 24.63 404.03 L 135.22 323.27 Z"/>
    <path id="path915" fill="#e2d879" stroke="none" transform="matrix(0.5415425240567512 -0.8406733578734626 0.8406733578734626 0.5415425240567512 -257.23198787432233 342.84090878770513)" d="M 45.75 388.66 L 30.87 399.35 L 24.65 404.07 L 31.09 399.7 L 43.64 390.66 Z"/>
    <path id="path917" fill="#282827" stroke="none" transform="matrix(0.5415425240567512 -0.8406733578734626 0.8406733578734626 0.5415425240567512 -257.23198787432233 342.84090878770513)" d="M 119.69 277.56 C 119.69 277.56 125.69 316.31 173.69 360.11 L 191.33 327.81 L 152.42 271.16"/>
    <path id="path919" fill="#6d6e70" stroke="none" transform="matrix(0.5415425240567512 -0.8406733578734626 0.8406733578734626 0.5415425240567512 -257.23198787432233 342.84090878770513)" d="M 162.68 265.88 L 97.91 244.88 L 166.45 198.76 L 229.61 220.85 Z"/>
    <path id="path921" fill="#808184" stroke="none" transform="matrix(0.5415425240567512 -0.8406733578734626 0.8406733578734626 0.5415425240567512 -257.23198787432233 342.84090878770513)" d="M 203.31 238.54 L 211.75 217.31 L 164.58 204.42 L 97.91 244.88 L 166.45 198.76 L 229.61 220.85 Z"/>
    <path id="path923" fill="#282827" stroke="none" transform="matrix(0.5415425240567512 -0.8406733578734626 0.8406733578734626 0.5415425240567512 -257.23198787432233 342.84090878770513)" d="M 100.46 302.56 C 100.46 302.56 133.63 327.3 143.08 367.72 L 154.36 354.05 L 118.5 295.22 Z"/>
    <path id="path925" fill="#6d6e70" stroke="none" transform="matrix(0.5415425240567512 -0.8406733578734626 0.8406733578734626 0.5415425240567512 -257.23198787432233 342.84090878770513)" d="M 202.14 326.84 L 196.3 394.69 L 265.44 349.46 L 269.65 282.69 Z"/>
    <path id="path927" fill="#808184" stroke="none" transform="matrix(0.5415425240567512 -0.8406733578734626 0.8406733578734626 0.5415425240567512 -257.23198787432233 342.84090878770513)" d="M 243.13 300.04 L 265.97 300.52 L 259.5 348.99 L 196.3 394.69 L 265.44 349.46 L 269.65 282.69 Z"/>
    <path id="path929" fill="#58595b" stroke="none" transform="matrix(0.5415425240567512 -0.8406733578734626 0.8406733578734626 0.5415425240567512 -257.23198787432233 342.84090878770513)" d="M 339.5 133.8 C 261.55883 174.16652 187.91208 222.33292 119.69 277.56 C 157.47 292.14 175.47 319.65667 173.69 360.11 C 250.68207 320.21812 323.4825 272.71074 391 218.3 L 390.84 218.53 L 392.23 217.36 C 392.66 217.01 393.11 216.7 393.54 216.36 L 394.43 215.47 C 419.01959 193.49322 441.0643 168.82541 460.15 141.93 L 460.15 141.93 C 529.52 43.42 339.5 133.8 339.5 133.8 Z"/>
    <path id="path931" fill="#646566" stroke="none" transform="matrix(0.5415425240567512 -0.8406733578734626 0.8406733578734626 0.5415425240567512 -257.23198787432233 342.84090878770513)" d="M 172.1 337.14 C 384.87 235.89 457.5 136.14 475.1 107.14 C 471.1 71.27 339.47 133.83 339.47 133.83 C 261.54053 174.18878 187.90395 222.34505 119.69 277.56 C 149.78 289.17 167.1 309.12 172.1 337.14 Z"/>
    <path id="path933" fill="#58595b" stroke="none" transform="matrix(0.5415425240567512 -0.8406733578734626 0.8406733578734626 0.5415425240567512 -257.23198787432233 342.84090878770513)" d="M 167.49 354.63 C 166.31 322.47 151.22333 299.40333 122.23 285.43 C 114.89667 291.04333 107.64 296.75333 100.46 302.56 C 130.28 314.06 144.48667 335.78 143.08 367.72 C 151.28667 363.46 159.42333 359.09667 167.49 354.63 Z"/>
    <path id="path935" fill="#d0d2d3" stroke="none" transform="matrix(0.5415425240567512 -0.8406733578734626 0.8406733578734626 0.5415425240567512 -257.23198787432233 342.84090878770513)" d="M 401.11 167.83 C 401.11 182.12865 389.51865 193.72 375.22 193.72 C 360.92135 193.72 349.33 182.12865 349.33 167.83 C 349.33 153.53135 360.92135 141.94 375.22 141.94 C 389.51865 141.94 401.11 153.53135 401.11 167.83 Z"/>
    <path id="path937" fill="#a6a8ab" stroke="none" transform="matrix(0.5415425240567512 -0.8406733578734626 0.8406733578734626 0.5415425240567512 -257.23198787432233 342.84090878770513)" d="M 371.1 142.27 C 363.80019 143.45793 357.36551 147.73193 353.44 154 C 362.26234 143.71456 377.54325 142.0188 388.40598 150.11973 C 399.26871 158.22065 402.00185 173.35048 394.66 184.74 C 401.86704 176.55671 403.14849 164.72506 397.86062 155.1885 C 392.57275 145.65193 381.8585 140.47169 371.1 142.25 Z"/>
    <path id="path939" fill="#808184" stroke="none" transform="matrix(0.5415425240567512 -0.8406733578734626 0.8406733578734626 0.5415425240567512 -257.23198787432233 342.84090878770513)" d="M 267.61 237.28 C 266.15 236.87 193.61 279.28 193.61 279.28 L 184.35 292.28 L 198.95 290.12 Z"/>
    <path id="path941" fill="#6d6e70" stroke="none" transform="matrix(0.5415425240567512 -0.8406733578734626 0.8406733578734626 0.5415425240567512 -257.23198787432233 342.84090878770513)" d="M 267.61 237.28 C 266.15 236.87 193.61 279.28 193.61 279.28 L 184.35 292.28 L 196.51 282.12 Z"/>
    <path id="path943" fill="#f3b06e" stroke="none" transform="matrix(0.5415425240567512 -0.8406733578734626 0.8406733578734626 0.5415425240567512 -257.23198787432233 342.84090878770513)" d="M 120.8 319.1 C 120.8 319.1 115.14 313 100.52 322 C 85.9 331 98.52 347.31 83.46 359.84 C 68.4 372.37 60.46 377.34 60.46 377.34 L 131 327.49 Z"/>
    <path id="path945" fill="#f3b06e" stroke="none" transform="matrix(0.5415425240567512 -0.8406733578734626 0.8406733578734626 0.5415425240567512 -257.23198787432233 342.84090878770513)" d="M 134.85 338.66 C 134.85 338.66 138.79 345.96 125.66 356.97 C 112.53 367.98 101.05 350.76 84.36 361.04 C 67.67 371.32 60.36 377.29 60.36 377.29 L 130.09 326.37 Z"/>
    <path id="path947" fill="#f3b06e" stroke="none" transform="matrix(0.5415425240567512 -0.8406733578734626 0.8406733578734626 0.5415425240567512 -257.23198787432233 342.84090878770513)" d="M 73.71 367.57 L 64.33 374.31 L 60.41 377.29 L 64.47 374.54 L 72.38 368.84 Z"/>
    <path id="path949" fill="#f3b06e" stroke="none" transform="matrix(0.5415425240567512 -0.8406733578734626 0.8406733578734626 0.5415425240567512 -257.23198787432233 342.84090878770513)" d="M 119.69 318.3 C 120.22 318.63 135.69 324.19 135.4 340.96 C 135.11 357.73 114.54 342 114.54 342"/>
</svg>
