<?xml version="1.0" encoding="UTF-8" standalone="no"?>
<svg
   width="12cm"
   height="4cm"
   viewBox="0 0 1200 400"
   version="1.1"
   id="svg143"
   xmlns:xlink="http://www.w3.org/1999/xlink"
   xmlns="http://www.w3.org/2000/svg"
   xmlns:svg="http://www.w3.org/2000/svg">
  <desc
     id="desc94">Example fillrule-evenodd - demonstrates fill-rule:evenodd</desc>
  <defs
     id="defs99">
    <path
       id="Triangle"
       d="M 16,0 L -8,9 v-18 z"
       fill="black"
       stroke="none" />
  </defs>
  <g
     id="g5073"
     transform="translate(-491.50005,-79.5)">
    <path
       d="m 950,139 c -27.06196,0 -48.99999,21.93805 -48.99999,49 0,27.06195 21.93803,49 48.99999,49 27.06198,0 48.99998,-21.93805 48.99998,-49 0,-27.06195 -21.938,-49 -48.99998,-49 z"
       style="opacity:1;fill:#00ffff;fill-opacity:1;fill-rule:evenodd;stroke:#000000;stroke-width:0;stroke-miterlimit:4;stroke-dasharray:none"
       id="path2926" />
    <path
       d="m 600,81 a 107,107 0 0 1 0,214 107,107 0 0 1 0,-214 z m 0,58 a 49,49 0 0 1 0,98 49,49 0 0 1 0,-98 z"
       id="path113"
       style="fill:#00ffff;fill-opacity:1;fill-rule:evenodd;stroke:#000000;stroke-width:3" />
    <use
       xlink:href="#Triangle"
       transform="rotate(90,259.5,447.5)"
       overflow="visible"
       id="use115"
       style="fill:#ffffff;fill-rule:evenodd;stroke:#000000;stroke-width:3"
       x="0"
       y="0"
       width="100%"
       height="100%" />
    <use
       xlink:href="#Triangle"
       transform="rotate(-150,310.85194,67.115242)"
       overflow="visible"
       id="use117"
       style="fill:#ffffff;fill-rule:evenodd;stroke:#000000;stroke-width:3"
       x="0"
       y="0"
       width="100%"
       height="100%" />
    <use
       xlink:href="#Triangle"
       transform="rotate(-30,451.14806,-972.11524)"
       overflow="visible"
       id="use119"
       style="fill:#ffffff;fill-rule:evenodd;stroke:#000000;stroke-width:3"
       x="0"
       y="0"
       width="100%"
       height="100%" />
    <use
       xlink:href="#Triangle"
       transform="rotate(150,281.37753,198.88476)"
       overflow="visible"
       id="use121"
       style="fill:#ffffff;fill-rule:evenodd;stroke:#000000;stroke-width:3"
       x="0"
       y="0"
       width="100%"
       height="100%" />
    <use
       xlink:href="#Triangle"
       transform="rotate(-90,369.5,-181.5)"
       overflow="visible"
       id="use123"
       style="fill:#ffffff;fill-rule:evenodd;stroke:#000000;stroke-width:3"
       x="0"
       y="0"
       width="100%"
       height="100%" />
    <use
       xlink:href="#Triangle"
       transform="rotate(30,40.622469,1238.1152)"
       overflow="visible"
       id="use125"
       style="fill:#ffffff;fill-rule:evenodd;stroke:#000000;stroke-width:3"
       x="0"
       y="0"
       width="100%"
       height="100%" />
    <path
       d="m 950,81 c 59.0945,0 107,47.90553 107,107 0,59.09447 -47.9055,107 -107,107 -59.09451,0 -106.99995,-47.90553 -106.99995,-107 0,-59.09447 47.90544,-107 106.99995,-107 z m 0,58 c -27.06197,0 -48.99998,21.93805 -48.99998,49 0,27.06195 21.93801,49 48.99998,49 27.06197,0 48.99998,-21.93805 48.99998,-49 0,-27.06195 -21.93801,-49 -48.99998,-49 z"
       id="path127"
       style="fill:#ffffff;fill-rule:evenodd;stroke:#000000;stroke-width:3;stroke-miterlimit:4;stroke-dasharray:none" />
    <use
       xlink:href="#Triangle"
       transform="rotate(90,434.5,622.5)"
       overflow="visible"
       id="use129"
       style="fill:#ffffff;fill-rule:evenodd;stroke:#000000;stroke-width:3"
       x="0"
       y="0"
       width="100%"
       height="100%" />
    <use
       xlink:href="#Triangle"
       transform="rotate(-150,485.85194,20.224134)"
       overflow="visible"
       id="use131"
       style="fill:#ffffff;fill-rule:evenodd;stroke:#000000;stroke-width:3"
       x="0"
       y="0"
       width="100%"
       height="100%" />
    <use
       xlink:href="#Triangle"
       transform="rotate(-30,626.14806,-1625.2241)"
       overflow="visible"
       id="use133"
       style="fill:#ffffff;fill-rule:evenodd;stroke:#000000;stroke-width:3"
       x="0"
       y="0"
       width="100%"
       height="100%" />
    <use
       xlink:href="#Triangle"
       transform="rotate(-30,917.24802,-1703.2241)"
       overflow="visible"
       id="use135"
       style="fill:#ffffff;fill-rule:evenodd;stroke:#000000;stroke-width:3"
       x="0"
       y="0"
       width="100%"
       height="100%" />
    <use
       xlink:href="#Triangle"
       transform="rotate(90,356.5,544.5)"
       overflow="visible"
       id="use137"
       style="fill:#ffffff;fill-rule:evenodd;stroke:#000000;stroke-width:3"
       x="0"
       y="0"
       width="100%"
       height="100%" />
    <use
       xlink:href="#Triangle"
       transform="rotate(-150,506.75198,-57.775866)"
       overflow="visible"
       id="use139"
       style="fill:#ffffff;fill-rule:evenodd;stroke:#000000;stroke-width:3"
       x="0"
       y="0"
       width="100%"
       height="100%" />
  </g>
</svg>
