<?xml version="1.0" encoding="UTF-8" standalone="no"?>
<!-- Created with Inkscape (http://www.inkscape.org/) -->
<svg xmlns:rdf="http://www.w3.org/1999/02/22-rdf-syntax-ns#" xmlns="http://www.w3.org/2000/svg" xmlns:cc="http://creativecommons.org/ns#" xmlns:dc="http://purl.org/dc/elements/1.1/" xmlns:svg="http://www.w3.org/2000/svg" xmlns:inkscape="http://www.inkscape.org/namespaces/inkscape" xmlns:sodipodi="http://sodipodi.sourceforge.net/DTD/sodipodi-0.dtd" xmlns:ns1="http://sozi.baierouge.fr" xmlns:xlink="http://www.w3.org/1999/xlink" id="svg2" viewBox="0 0 374.95 429.34" version="1.1" inkscape:version="0.91 r13725">
  <g id="layer1" transform="translate(-158.58 -87.783)">
    <g id="g4572" transform="matrix(.59121 0 0 .59121 541.08 -492.63)">
      <path id="path4757-7-7" style="stroke:#000000;stroke-width:1px;fill:#800000" d="m-444.95 1167.5 15.343-8.8583v177.17l-15.343 8.8582z"/>
      <path id="path4757-7-2-2-4" style="stroke:#000000;stroke-width:1px;fill:#d40000" d="m-444.95 1167.5-15.343-8.8583v177.17l15.343 8.8582z"/>
      <path id="path4813-0" style="stroke:#000000;stroke-width:1px;fill:#800000" d="m-444.95 1149.8v17.717l-153.43 88.583v-17.716z"/>
      <path id="path4813-9-9" style="stroke:#000000;stroke-width:1px;fill:#800000" d="m-444.95 1344.7v17.717l-153.43 88.583v-17.716z"/>
      <path id="path4813-4-4" style="stroke:#000000;stroke-width:1px;fill:#d40000" d="m-291.52 1256.1v-17.716l-153.43-88.583v17.717z"/>
      <path id="path4813-4-1-8" style="stroke:#000000;stroke-width:1px;fill:#d40000" d="m-291.52 1451v-17.716l-153.43-88.583v17.717z"/>
      <path id="path4858-8" style="stroke:#000000;stroke-width:1px;fill:#ff5555" d="m-613.72 1442.1 15.343-8.8583 153.43 88.583-15.343 8.8582z"/>
      <path id="path4858-6-2-4" style="stroke:#000000;stroke-width:1px;fill:#00ff00" d="m-214.8 1477.6-15.343-8.8582-153.43 88.583 15.343 8.8583z"/>
      <path id="path4757-2" style="stroke:#000000;stroke-width:1px;fill:#004900" d="m-383.57 1397.8 15.343-8.8582v177.17l-15.343 8.8583z"/>
      <path id="path4858-9-2" style="stroke:#000000;stroke-width:1px;fill:#ff5555" d="m-444.95 1344.7 15.343-8.8582 153.43 88.583-15.343 8.8583z"/>
      <path id="path4858-6-4" style="stroke:#000000;stroke-width:1px;fill:#ff5555" d="m-276.17 1442.1-15.343-8.8583-153.43 88.583 15.343 8.8582z"/>
      <path id="path4757-7-2-5" style="stroke:#000000;stroke-width:1px;fill:#d40000" d="m-276.17 1265-15.343-8.8583v177.17l15.343 8.8583z"/>
      <path id="path4858-6-2-5" style="stroke:#000000;stroke-width:1px;fill:#ff5555" d="m-444.95 1344.7-15.343-8.8582-153.43 88.583 15.343 8.8583z"/>
      <path id="path4757-1" style="stroke:#000000;stroke-width:1px;fill:#800000" d="m-613.72 1265 15.343-8.8583v177.17l-15.343 8.8583z"/>
      <path id="path4700-8-7" style="stroke:#000000;stroke-width:1px;fill:#d40000" d="m-629.04 1238.4 184.09 106.31v212.59l-184.09-106.31v-212.59zm15.344 26.594v177.16l153.41 88.594v-177.19l-153.41-88.562z"/>
      <path id="path4757-7-27" style="stroke:#000000;stroke-width:1px;fill:#000080" d="m-214.8 1034.6 15.343-8.8583v177.17l-15.343 8.8583z"/>
      <path id="path4757-7-2-2-6" style="stroke:#000000;stroke-width:1px;fill:#0000ff" d="m-214.8 1034.6-15.343-8.8583v177.17l15.343 8.8583z"/>
      <path id="path4813-1" style="stroke:#000000;stroke-width:1px;fill:#000080" d="m-214.8 1016.9v17.717l-153.43 88.583v-17.716z"/>
      <path id="path4813-9-4" style="stroke:#000000;stroke-width:1px;fill:#000080" d="m-214.8 1211.8v17.716l-153.43 88.583v-17.716z"/>
      <path id="path4813-4-2" style="stroke:#000000;stroke-width:1px;fill:#0000ff" d="m-61.372 1123.2v-17.716l-153.43-88.583v17.717z"/>
      <path id="path4813-4-1-3" style="stroke:#000000;stroke-width:1px;fill:#0000ff" d="m-61.372 1318.1v-17.716l-153.43-88.583v17.716z"/>
      <path id="path4858-2" style="stroke:#000000;stroke-width:1px;fill:#7272ff" d="m-383.57 1309.3 15.343-8.8583 153.43 88.583-15.343 8.8582z"/>
      <path id="path4858-9-21" style="stroke:#000000;stroke-width:1px;fill:#7272ff" d="m-214.8 1211.8 15.343-8.8583 153.43 88.583-15.343 8.8583z"/>
      <path id="path4858-6-6" style="stroke:#000000;stroke-width:1px;fill:#7272ff" d="m-46.029 1309.3-15.343-8.8583-153.43 88.583 15.343 8.8582z"/>
      <path id="path4757-7-2-8" style="stroke:#000000;stroke-width:1px;fill:#0000ff" d="m-46.029 1132.1-15.343-8.8583v177.17l15.343 8.8583z"/>
      <path id="path4858-6-2-57" style="stroke:#000000;stroke-width:1px;fill:#7272ff" d="m-214.8 1211.8-15.343-8.8583-153.43 88.583 15.343 8.8583z"/>
      <path id="path4757-6" style="stroke:#000000;stroke-width:1px;fill:#000080" d="m-383.57 1132.1 15.343-8.8583v177.17l-15.343 8.8583z"/>
      <path id="path4700-8-6-8" style="stroke:#000000;stroke-width:1px;fill:#7272ff" d="m-30.677 1105.5-184.12 106.27-184.11-106.3 184.12-106.27 184.11 106.3zm-30.703-0.01-153.42-88.578-153.43 88.557 153.45 88.594 153.4-88.573z"/>
      <path id="path4757-7-79" style="stroke:#000000;stroke-width:1px;fill:#004900" d="m-214.8 1300.4 15.343-8.8583v177.17l-15.343 8.8582z"/>
      <path id="path4757-7-2-2-5" style="stroke:#000000;stroke-width:1px;fill:#008000" d="m-214.8 1300.4-15.343-8.8583v177.17l15.343 8.8582z"/>
      <path id="path4813-9-1" style="stroke:#000000;stroke-width:1px;fill:#004900" d="m-214.8 1477.6v17.717l-153.43 88.583v-17.716z"/>
      <path id="path4813-4-23" style="stroke:#000000;stroke-width:1px;fill:#008000" d="m-61.372 1389v-17.717l-153.43-88.583v17.716z"/>
      <path id="path4813-4-1-34" style="stroke:#000000;stroke-width:1px;fill:#008000" d="m-61.372 1583.9v-17.717l-153.43-88.583v17.717z"/>
      <path id="path4858-1" style="stroke:#000000;stroke-width:1px;fill:#00ff00" d="m-383.57 1575 15.343-8.8583 153.43 88.583-15.343 8.8583z"/>
      <path id="path4858-9-1" style="stroke:#000000;stroke-width:1px;fill:#00ff00" d="m-214.8 1477.6 15.343-8.8582 153.43 88.583-15.343 8.8583z"/>
      <path id="path4858-6-3" style="stroke:#000000;stroke-width:1px;fill:#00ff00" d="m-46.029 1575-15.343-8.8583-153.43 88.583 15.343 8.8583z"/>
      <path id="path4757-7-2-87" style="stroke:#000000;stroke-width:1px;fill:#008000" d="m-46.029 1397.8-15.343-8.8582v177.17l15.343 8.8583z"/>
      <path id="path4700-3" style="stroke:#000000;stroke-width:1px;fill:#004900" d="m-30.698 1371.3-184.09 106.31v212.59l184.09-106.31v-212.59zm-15.344 26.594v177.16l-153.41 88.594v-177.19l153.41-88.562z"/>
      <path id="path4813-43" style="stroke:#000000;stroke-width:1px;fill:#004900" d="m-214.81 1282.7-46.031 26.562v17.719l46.031-26.563v-17.719zm-76.719 44.281-76.688 44.281v17.719l76.688-44.281v-17.719z"/>
      <path id="path3514-1-8" style="stroke:#000000;stroke-width:1px;fill:#008000" d="m-383.57 1486.4 0.0002-88.583 153.43 88.583-0.00019 177.17-153.43-88.583-0.00016-53.15-15.343 8.8582v53.15l184.12 106.3 0.00002-212.6-184.12-106.3-0.00009 124.02z"/>
      <path id="path3514-1-8-6" style="stroke:#000000;stroke-width:1px;fill:#00ff00" d="m-214.81 1265-46.031 26.562v17.719l46.031-26.562 153.44 88.562-153.44 88.594-153.41-88.594 76.688-44.281v-17.719l-107.38 62 184.09 106.31 184.12-106.31-184.12-106.28z"/>
      <path id="path3514-1-8-6-5" style="stroke:#000000;stroke-width:1px;fill:#0000ff" d="m-306.86 1353.5 76.715 44.291 0.00001-177.17-153.43-88.583 0.00009 177.17 46.029 26.575-15.343 8.8584-46.029-26.575-0.00002-212.6 184.12 106.3 0.00006 212.6-107.4-62.008z"/>
      <path id="path3514-1-8-6-5-0" style="stroke:#000000;stroke-width:1px;fill:#000080" d="m-122.74 1353.5-76.715 44.291-0.00001-177.17 153.43-88.583-0.00009 177.17-46.029 26.575 15.343 8.8584 46.029-26.575 0.00002-212.6-184.12 106.3-0.00006 212.6 107.4-62.008z"/>
      <path id="path3514-1" style="stroke:#000000;stroke-width:1px;fill:#ff5555" d="m-368.23 1194.1 76.715 44.292-153.43 88.583-153.43-88.583 153.43-88.583 46.029 26.575 0.00007-17.716-46.029-26.575-184.12 106.3 184.12 106.3 184.12-106.3-107.4-62.008z"/>
      <path id="path3514" style="stroke:#000000;stroke-width:1px;fill:#800000" d="m-260.84 1238.4-184.09 106.31v212.59l168.75-97.437-15.344-8.875-138.06 79.75v-177.19l153.41-88.562v88.562l15.344 8.875v-124.03zm-15.344 150.59v35.437l15.344 8.8438v-35.406l-15.344-8.875z"/>
    </g>
  </g>
  <metadata>
    <rdf:RDF>
      <cc:Work>
        <dc:format>image/svg+xml</dc:format>
        <dc:type rdf:resource="http://purl.org/dc/dcmitype/StillImage"/>
        <cc:license rdf:resource="http://creativecommons.org/licenses/publicdomain/"/>
        <dc:publisher>
          <cc:Agent rdf:about="http://openclipart.org/">
            <dc:title>Openclipart</dc:title>
          </cc:Agent>
        </dc:publisher>
        <dc:title>Impossible cubes</dc:title>
        <dc:date>2013-03-29T16:30:51</dc:date>
        <dc:description/>
        <dc:source>https://openclipart.org/detail/176610/impossible-cubes-by-jarda-176610</dc:source>
        <dc:creator>
          <cc:Agent>
            <dc:title>jarda</dc:title>
          </cc:Agent>
        </dc:creator>
        <dc:subject>
          <rdf:Bag>
            <rdf:li>Impossible</rdf:li>
            <rdf:li>cube</rdf:li>
            <rdf:li>cubes</rdf:li>
            <rdf:li>geometry</rdf:li>
            <rdf:li>optical illusion</rdf:li>
          </rdf:Bag>
        </dc:subject>
      </cc:Work>
      <cc:License rdf:about="http://creativecommons.org/licenses/publicdomain/">
        <cc:permits rdf:resource="http://creativecommons.org/ns#Reproduction"/>
        <cc:permits rdf:resource="http://creativecommons.org/ns#Distribution"/>
        <cc:permits rdf:resource="http://creativecommons.org/ns#DerivativeWorks"/>
      </cc:License>
    </rdf:RDF>
  </metadata>
</svg>
