<?xml version="1.0" encoding="UTF-8" standalone="no"?>
<!DOCTYPE svg PUBLIC "-//W3C//DTD SVG 1.1//EN" "http://www.w3.org/Graphics/SVG/1.1/DTD/svg11.dtd">
<svg xmlns="http://www.w3.org/2000/svg" xmlns:xlink="http://www.w3.org/1999/xlink" version="1.1" width="1024" height="768" viewBox="0 0 640 480" xml:space="preserve">
<desc>Created with Fabric.js 3.6.3</desc>
<defs>
</defs>
<g transform="matrix(1 0 0 1 56 56)">
<path style="stroke: rgb(0,0,0); stroke-width: 1; stroke-dasharray: none; stroke-linecap: round; stroke-dashoffset: 0; stroke-linejoin: round; stroke-miterlimit: 4; fill: none; fill-rule: nonzero; opacity: 1;" transform=" translate(-50, 50)" d="M 0 -100 V 0 H 100" stroke-linecap="round"/>
</g>
<g transform="matrix(1 0 0 1 11 61)">
<path style="stroke: rgb(153,102,0); stroke-opacity: 0.5; stroke-width: 2; stroke-dasharray: none; stroke-linecap: round; stroke-dashoffset: 0; stroke-linejoin: round; stroke-miterlimit: 4; fill: none; fill-rule: nonzero; opacity: 1;" transform=" translate(-5, 45)" d="M 0 -90 L 10 0" stroke-linecap="round"/>
</g>
<g transform="matrix(1 0 0 1 6 16)">
<circle style="stroke: none; stroke-width: 2; stroke-dasharray: none; stroke-linecap: round; stroke-dashoffset: 0; stroke-linejoin: round; stroke-miterlimit: 4; fill: rgb(153,102,0); fill-opacity: 0.5; fill-rule: nonzero; opacity: 1;" cx="0" cy="0" r="2.5"/>
</g>
<g transform="matrix(1 0 0 1 16 106)">
<circle style="stroke: none; stroke-width: 2; stroke-dasharray: none; stroke-linecap: round; stroke-dashoffset: 0; stroke-linejoin: round; stroke-miterlimit: 4; fill: rgb(153,102,0); fill-opacity: 0.5; fill-rule: nonzero; opacity: 1;" cx="0" cy="0" r="2.5"/>
</g>
<g transform="matrix(1 0 0 1 16 66)">
<path style="stroke: rgb(255,51,51); stroke-opacity: 0.5; stroke-width: 2; stroke-dasharray: none; stroke-linecap: round; stroke-dashoffset: 0; stroke-linejoin: round; stroke-miterlimit: 4; fill: none; fill-rule: nonzero; opacity: 1;" transform=" translate(-10, 40)" d="M 0 -80 L 20 0" stroke-linecap="round"/>
</g>
<g transform="matrix(1 0 0 1 6 26)">
<circle style="stroke: none; stroke-width: 2; stroke-dasharray: none; stroke-linecap: round; stroke-dashoffset: 0; stroke-linejoin: round; stroke-miterlimit: 4; fill: rgb(255,51,51); fill-opacity: 0.5; fill-rule: nonzero; opacity: 1;" cx="0" cy="0" r="2.5"/>
</g>
<g transform="matrix(1 0 0 1 26 106)">
<circle style="stroke: none; stroke-width: 2; stroke-dasharray: none; stroke-linecap: round; stroke-dashoffset: 0; stroke-linejoin: round; stroke-miterlimit: 4; fill: rgb(255,51,51); fill-opacity: 0.5; fill-rule: nonzero; opacity: 1;" cx="0" cy="0" r="2.5"/>
</g>
<g transform="matrix(1 0 0 1 21 71)">
<path style="stroke: rgb(255,102,0); stroke-opacity: 0.5; stroke-width: 2; stroke-dasharray: none; stroke-linecap: round; stroke-dashoffset: 0; stroke-linejoin: round; stroke-miterlimit: 4; fill: none; fill-rule: nonzero; opacity: 1;" transform=" translate(-15, 35)" d="M 0 -70 L 30 0" stroke-linecap="round"/>
</g>
<g transform="matrix(1 0 0 1 6 36)">
<circle style="stroke: none; stroke-width: 2; stroke-dasharray: none; stroke-linecap: round; stroke-dashoffset: 0; stroke-linejoin: round; stroke-miterlimit: 4; fill: rgb(255,102,0); fill-opacity: 0.5; fill-rule: nonzero; opacity: 1;" cx="0" cy="0" r="2.5"/>
</g>
<g transform="matrix(1 0 0 1 36 106)">
<circle style="stroke: none; stroke-width: 2; stroke-dasharray: none; stroke-linecap: round; stroke-dashoffset: 0; stroke-linejoin: round; stroke-miterlimit: 4; fill: rgb(255,102,0); fill-opacity: 0.5; fill-rule: nonzero; opacity: 1;" cx="0" cy="0" r="2.5"/>
</g>
<g transform="matrix(1 0 0 1 26 76)">
<path style="stroke: rgb(255,204,0); stroke-opacity: 0.5; stroke-width: 2; stroke-dasharray: none; stroke-linecap: round; stroke-dashoffset: 0; stroke-linejoin: round; stroke-miterlimit: 4; fill: none; fill-rule: nonzero; opacity: 1;" transform=" translate(-20, 30)" d="M 0 -60 L 40 0" stroke-linecap="round"/>
</g>
<g transform="matrix(1 0 0 1 6 46)">
<circle style="stroke: none; stroke-width: 2; stroke-dasharray: none; stroke-linecap: round; stroke-dashoffset: 0; stroke-linejoin: round; stroke-miterlimit: 4; fill: rgb(255,204,0); fill-opacity: 0.5; fill-rule: nonzero; opacity: 1;" cx="0" cy="0" r="2.5"/>
</g>
<g transform="matrix(1 0 0 1 46 106)">
<circle style="stroke: none; stroke-width: 2; stroke-dasharray: none; stroke-linecap: round; stroke-dashoffset: 0; stroke-linejoin: round; stroke-miterlimit: 4; fill: rgb(255,204,0); fill-opacity: 0.5; fill-rule: nonzero; opacity: 1;" cx="0" cy="0" r="2.5"/>
</g>
<g transform="matrix(1 0 0 1 31 81)">
<path style="stroke: rgb(0,204,0); stroke-opacity: 0.5; stroke-width: 2; stroke-dasharray: none; stroke-linecap: round; stroke-dashoffset: 0; stroke-linejoin: round; stroke-miterlimit: 4; fill: none; fill-rule: nonzero; opacity: 1;" transform=" translate(-25, 25)" d="M 0 -50 L 50 0" stroke-linecap="round"/>
</g>
<g transform="matrix(1 0 0 1 6 56)">
<circle style="stroke: none; stroke-width: 2; stroke-dasharray: none; stroke-linecap: round; stroke-dashoffset: 0; stroke-linejoin: round; stroke-miterlimit: 4; fill: rgb(0,204,0); fill-opacity: 0.5; fill-rule: nonzero; opacity: 1;" cx="0" cy="0" r="2.5"/>
</g>
<g transform="matrix(1 0 0 1 56 106)">
<circle style="stroke: none; stroke-width: 2; stroke-dasharray: none; stroke-linecap: round; stroke-dashoffset: 0; stroke-linejoin: round; stroke-miterlimit: 4; fill: rgb(0,204,0); fill-opacity: 0.5; fill-rule: nonzero; opacity: 1;" cx="0" cy="0" r="2.5"/>
</g>
<g transform="matrix(1 0 0 1 36 86)">
<path style="stroke: rgb(0,153,255); stroke-opacity: 0.5; stroke-width: 2; stroke-dasharray: none; stroke-linecap: round; stroke-dashoffset: 0; stroke-linejoin: round; stroke-miterlimit: 4; fill: none; fill-rule: nonzero; opacity: 1;" transform=" translate(-30, 20)" d="M 0 -40 L 60 0" stroke-linecap="round"/>
</g>
<g transform="matrix(1 0 0 1 6 66)">
<circle style="stroke: none; stroke-width: 2; stroke-dasharray: none; stroke-linecap: round; stroke-dashoffset: 0; stroke-linejoin: round; stroke-miterlimit: 4; fill: rgb(0,153,255); fill-opacity: 0.5; fill-rule: nonzero; opacity: 1;" cx="0" cy="0" r="2.5"/>
</g>
<g transform="matrix(1 0 0 1 66 106)">
<circle style="stroke: none; stroke-width: 2; stroke-dasharray: none; stroke-linecap: round; stroke-dashoffset: 0; stroke-linejoin: round; stroke-miterlimit: 4; fill: rgb(0,153,255); fill-opacity: 0.5; fill-rule: nonzero; opacity: 1;" cx="0" cy="0" r="2.5"/>
</g>
<g transform="matrix(1 0 0 1 41 91)">
<path style="stroke: rgb(102,102,255); stroke-opacity: 0.5; stroke-width: 2; stroke-dasharray: none; stroke-linecap: round; stroke-dashoffset: 0; stroke-linejoin: round; stroke-miterlimit: 4; fill: none; fill-rule: nonzero; opacity: 1;" transform=" translate(-35, 15)" d="M 0 -30 L 70 0" stroke-linecap="round"/>
</g>
<g transform="matrix(1 0 0 1 6 76)">
<circle style="stroke: none; stroke-width: 2; stroke-dasharray: none; stroke-linecap: round; stroke-dashoffset: 0; stroke-linejoin: round; stroke-miterlimit: 4; fill: rgb(102,102,255); fill-opacity: 0.5; fill-rule: nonzero; opacity: 1;" cx="0" cy="0" r="2.5"/>
</g>
<g transform="matrix(1 0 0 1 76 106)">
<circle style="stroke: none; stroke-width: 2; stroke-dasharray: none; stroke-linecap: round; stroke-dashoffset: 0; stroke-linejoin: round; stroke-miterlimit: 4; fill: rgb(102,102,255); fill-opacity: 0.5; fill-rule: nonzero; opacity: 1;" cx="0" cy="0" r="2.5"/>
</g>
<g transform="matrix(1 0 0 1 46 96)">
<path style="stroke: rgb(204,102,255); stroke-opacity: 0.5; stroke-width: 2; stroke-dasharray: none; stroke-linecap: round; stroke-dashoffset: 0; stroke-linejoin: round; stroke-miterlimit: 4; fill: none; fill-rule: nonzero; opacity: 1;" transform=" translate(-40, 10)" d="M 0 -20 L 80 0" stroke-linecap="round"/>
</g>
<g transform="matrix(1 0 0 1 6 86)">
<circle style="stroke: none; stroke-width: 2; stroke-dasharray: none; stroke-linecap: round; stroke-dashoffset: 0; stroke-linejoin: round; stroke-miterlimit: 4; fill: rgb(204,102,255); fill-opacity: 0.5; fill-rule: nonzero; opacity: 1;" cx="0" cy="0" r="2.5"/>
</g>
<g transform="matrix(1 0 0 1 86 106)">
<circle style="stroke: none; stroke-width: 2; stroke-dasharray: none; stroke-linecap: round; stroke-dashoffset: 0; stroke-linejoin: round; stroke-miterlimit: 4; fill: rgb(204,102,255); fill-opacity: 0.5; fill-rule: nonzero; opacity: 1;" cx="0" cy="0" r="2.5"/>
</g>
<g transform="matrix(1 0 0 1 51 101)">
<path style="stroke: rgb(153,153,153); stroke-opacity: 0.5; stroke-width: 2; stroke-dasharray: none; stroke-linecap: round; stroke-dashoffset: 0; stroke-linejoin: round; stroke-miterlimit: 4; fill: none; fill-rule: nonzero; opacity: 1;" transform=" translate(-45, 5)" d="M 0 -10 L 90 0" stroke-linecap="round"/>
</g>
<g transform="matrix(1 0 0 1 6 96)">
<circle style="stroke: none; stroke-width: 2; stroke-dasharray: none; stroke-linecap: round; stroke-dashoffset: 0; stroke-linejoin: round; stroke-miterlimit: 4; fill: rgb(153,153,153); fill-opacity: 0.5; fill-rule: nonzero; opacity: 1;" cx="0" cy="0" r="2.5"/>
</g>
<g transform="matrix(1 0 0 1 96 106)">
<circle style="stroke: none; stroke-width: 2; stroke-dasharray: none; stroke-linecap: round; stroke-dashoffset: 0; stroke-linejoin: round; stroke-miterlimit: 4; fill: rgb(153,153,153); fill-opacity: 0.5; fill-rule: nonzero; opacity: 1;" cx="0" cy="0" r="2.5"/>
</g>
<g transform="matrix(1 0 0 1 56 56)">
<path style="stroke: rgb(0,0,0); stroke-width: 3; stroke-dasharray: 0 5; stroke-linecap: round; stroke-dashoffset: 0; stroke-linejoin: round; stroke-miterlimit: 4; fill: none; fill-rule: nonzero; opacity: 1;" transform=" translate(-50, 50)" d="M 0 -100 Q 0 0 100 0" stroke-linecap="round"/>
</g>
<g transform="matrix(1 0 0 1 6 6)">
<circle style="stroke: rgb(0,0,0); stroke-width: 2; stroke-dasharray: none; stroke-linecap: round; stroke-dashoffset: 0; stroke-linejoin: round; stroke-miterlimit: 4; fill: rgb(0,0,0); fill-rule: nonzero; opacity: 1;" cx="0" cy="0" r="2.5"/>
</g>
<g transform="matrix(1 0 0 1 106 106)">
<circle style="stroke: rgb(0,0,0); stroke-width: 2; stroke-dasharray: none; stroke-linecap: round; stroke-dashoffset: 0; stroke-linejoin: round; stroke-miterlimit: 4; fill: rgb(0,0,0); fill-rule: nonzero; opacity: 1;" cx="0" cy="0" r="2.5"/>
</g>
</svg>