<?xml version="1.0" encoding="utf-8" standalone="no"?>
<!DOCTYPE svg PUBLIC "-//W3C//DTD SVG 1.1//EN"
  "http://www.w3.org/Graphics/SVG/1.1/DTD/svg11.dtd">
<svg xmlns:xlink="http://www.w3.org/1999/xlink" width="460.8pt" height="345.6pt" viewBox="0 0 460.8 345.6" xmlns="http://www.w3.org/2000/svg" version="1.1">
 <metadata>
  <rdf:RDF xmlns:dc="http://purl.org/dc/elements/1.1/" xmlns:cc="http://creativecommons.org/ns#" xmlns:rdf="http://www.w3.org/1999/02/22-rdf-syntax-ns#">
   <cc:Work>
    <dc:type rdf:resource="http://purl.org/dc/dcmitype/StillImage"/>
    <dc:date>2022-03-25T21:45:45.672652</dc:date>
    <dc:format>image/svg+xml</dc:format>
    <dc:creator>
     <cc:Agent>
      <dc:title>Matplotlib v3.5.1, https://matplotlib.org/</dc:title>
     </cc:Agent>
    </dc:creator>
   </cc:Work>
  </rdf:RDF>
 </metadata>
 <defs>
  <style type="text/css">*{stroke-linejoin: round; stroke-linecap: butt}</style>
 </defs>
 <g id="figure_1">
  <g id="patch_1">
   <path d="M 0 345.6 
L 460.8 345.6 
L 460.8 0 
L 0 0 
z
" style="fill: #ffffff"/>
  </g>
  <g id="axes_1">
   <g id="patch_2">
    <path d="M 54.02 294.73 
L 450 294.73 
L 450 26.88 
L 54.02 26.88 
z
" style="fill: #ffffff"/>
   </g>
   <g id="patch_3">
    <path d="M 72.019091 294.73 
L 101.405362 294.73 
L 101.405362 278.208288 
L 72.019091 278.208288 
z
" clip-path="url(#p6fd2f4770b)" style="fill: #1f77b4; opacity: 0.5"/>
   </g>
   <g id="patch_4">
    <path d="M 108.751929 294.73 
L 138.1382 294.73 
L 138.1382 270.938734 
L 108.751929 270.938734 
z
" clip-path="url(#p6fd2f4770b)" style="fill: #1f77b4; opacity: 0.5"/>
   </g>
   <g id="patch_5">
    <path d="M 145.484768 294.73 
L 174.871039 294.73 
L 174.871039 256.399627 
L 145.484768 256.399627 
z
" clip-path="url(#p6fd2f4770b)" style="fill: #1f77b4; opacity: 0.5"/>
   </g>
   <g id="patch_6">
    <path d="M 182.217607 294.73 
L 211.603878 294.73 
L 211.603878 241.199652 
L 182.217607 241.199652 
z
" clip-path="url(#p6fd2f4770b)" style="fill: #1f77b4; opacity: 0.5"/>
   </g>
   <g id="patch_7">
    <path d="M 218.950445 294.73 
L 248.336716 294.73 
L 248.336716 220.712729 
L 218.950445 220.712729 
z
" clip-path="url(#p6fd2f4770b)" style="fill: #1f77b4; opacity: 0.5"/>
   </g>
   <g id="patch_8">
    <path d="M 255.683284 294.73 
L 285.069555 294.73 
L 285.069555 212.782307 
L 255.683284 212.782307 
z
" clip-path="url(#p6fd2f4770b)" style="fill: #1f77b4; opacity: 0.5"/>
   </g>
   <g id="patch_9">
    <path d="M 292.416122 294.73 
L 321.802393 294.73 
L 321.802393 197.582332 
L 292.416122 197.582332 
z
" clip-path="url(#p6fd2f4770b)" style="fill: #1f77b4; opacity: 0.5"/>
   </g>
   <g id="patch_10">
    <path d="M 329.148961 294.73 
L 358.535232 294.73 
L 358.535232 198.2432 
L 329.148961 198.2432 
z
" clip-path="url(#p6fd2f4770b)" style="fill: #1f77b4; opacity: 0.5"/>
   </g>
   <g id="patch_11">
    <path d="M 365.8818 294.73 
L 395.268071 294.73 
L 395.268071 176.43454 
L 365.8818 176.43454 
z
" clip-path="url(#p6fd2f4770b)" style="fill: #1f77b4; opacity: 0.5"/>
   </g>
   <g id="patch_12">
    <path d="M 402.614638 294.73 
L 432.000909 294.73 
L 432.000909 147.356326 
L 402.614638 147.356326 
z
" clip-path="url(#p6fd2f4770b)" style="fill: #1f77b4; opacity: 0.5"/>
   </g>
   <g id="patch_13">
    <path d="M 72.019091 278.208288 
L 101.405362 278.208288 
L 101.405362 265.651786 
L 72.019091 265.651786 
z
" clip-path="url(#p6fd2f4770b)" style="fill: #ff7f0e; opacity: 0.5"/>
   </g>
   <g id="patch_14">
    <path d="M 108.751929 270.938734 
L 138.1382 270.938734 
L 138.1382 253.095285 
L 108.751929 253.095285 
z
" clip-path="url(#p6fd2f4770b)" style="fill: #ff7f0e; opacity: 0.5"/>
   </g>
   <g id="patch_15">
    <path d="M 145.484768 256.399627 
L 174.871039 256.399627 
L 174.871039 227.982282 
L 145.484768 227.982282 
z
" clip-path="url(#p6fd2f4770b)" style="fill: #ff7f0e; opacity: 0.5"/>
   </g>
   <g id="patch_16">
    <path d="M 182.217607 241.199652 
L 211.603878 241.199652 
L 211.603878 200.225806 
L 182.217607 200.225806 
z
" clip-path="url(#p6fd2f4770b)" style="fill: #ff7f0e; opacity: 0.5"/>
   </g>
   <g id="patch_17">
    <path d="M 218.950445 220.712729 
L 248.336716 220.712729 
L 248.336716 171.147592 
L 218.950445 171.147592 
z
" clip-path="url(#p6fd2f4770b)" style="fill: #ff7f0e; opacity: 0.5"/>
   </g>
   <g id="patch_18">
    <path d="M 255.683284 212.782307 
L 285.069555 212.782307 
L 285.069555 156.608485 
L 255.683284 156.608485 
z
" clip-path="url(#p6fd2f4770b)" style="fill: #ff7f0e; opacity: 0.5"/>
   </g>
   <g id="patch_19">
    <path d="M 292.416122 197.582332 
L 321.802393 197.582332 
L 321.802393 134.799825 
L 292.416122 134.799825 
z
" clip-path="url(#p6fd2f4770b)" style="fill: #ff7f0e; opacity: 0.5"/>
   </g>
   <g id="patch_20">
    <path d="M 329.148961 198.2432 
L 358.535232 198.2432 
L 358.535232 134.799825 
L 329.148961 134.799825 
z
" clip-path="url(#p6fd2f4770b)" style="fill: #ff7f0e; opacity: 0.5"/>
   </g>
   <g id="patch_21">
    <path d="M 365.8818 176.43454 
L 395.268071 176.43454 
L 395.268071 95.808584 
L 365.8818 95.808584 
z
" clip-path="url(#p6fd2f4770b)" style="fill: #ff7f0e; opacity: 0.5"/>
   </g>
   <g id="patch_22">
    <path d="M 402.614638 147.356326 
L 432.000909 147.356326 
L 432.000909 59.460817 
L 402.614638 59.460817 
z
" clip-path="url(#p6fd2f4770b)" style="fill: #ff7f0e; opacity: 0.5"/>
   </g>
   <g id="matplotlib.axis_1">
    <g id="xtick_1">
     <g id="line2d_1">
      <defs>
       <path id="meaabc15217" d="M 0 0 
L 0 3.5 
" style="stroke: #000000; stroke-width: 0.8"/>
      </defs>
      <g>
       <use xlink:href="#meaabc15217" x="86.712226" y="294.73" style="stroke: #000000; stroke-width: 0.8"/>
      </g>
     </g>
     <g id="text_1">
      <!-- 10 -->
      <g transform="translate(89.471601 314.455)rotate(-90)scale(0.1 -0.1)">
       <defs>
        <path id="DejaVuSans-31" d="M 794 531 
L 1825 531 
L 1825 4091 
L 703 3866 
L 703 4441 
L 1819 4666 
L 2450 4666 
L 2450 531 
L 3481 531 
L 3481 0 
L 794 0 
L 794 531 
z
" transform="scale(0.015625)"/>
        <path id="DejaVuSans-30" d="M 2034 4250 
Q 1547 4250 1301 3770 
Q 1056 3291 1056 2328 
Q 1056 1369 1301 889 
Q 1547 409 2034 409 
Q 2525 409 2770 889 
Q 3016 1369 3016 2328 
Q 3016 3291 2770 3770 
Q 2525 4250 2034 4250 
z
M 2034 4750 
Q 2819 4750 3233 4129 
Q 3647 3509 3647 2328 
Q 3647 1150 3233 529 
Q 2819 -91 2034 -91 
Q 1250 -91 836 529 
Q 422 1150 422 2328 
Q 422 3509 836 4129 
Q 1250 4750 2034 4750 
z
" transform="scale(0.015625)"/>
       </defs>
       <use xlink:href="#DejaVuSans-31"/>
       <use xlink:href="#DejaVuSans-30" x="63.623047"/>
      </g>
     </g>
    </g>
    <g id="xtick_2">
     <g id="line2d_2">
      <g>
       <use xlink:href="#meaabc15217" x="123.445065" y="294.73" style="stroke: #000000; stroke-width: 0.8"/>
      </g>
     </g>
     <g id="text_2">
      <!-- 20 -->
      <g transform="translate(126.20444 314.455)rotate(-90)scale(0.1 -0.1)">
       <defs>
        <path id="DejaVuSans-32" d="M 1228 531 
L 3431 531 
L 3431 0 
L 469 0 
L 469 531 
Q 828 903 1448 1529 
Q 2069 2156 2228 2338 
Q 2531 2678 2651 2914 
Q 2772 3150 2772 3378 
Q 2772 3750 2511 3984 
Q 2250 4219 1831 4219 
Q 1534 4219 1204 4116 
Q 875 4013 500 3803 
L 500 4441 
Q 881 4594 1212 4672 
Q 1544 4750 1819 4750 
Q 2544 4750 2975 4387 
Q 3406 4025 3406 3419 
Q 3406 3131 3298 2873 
Q 3191 2616 2906 2266 
Q 2828 2175 2409 1742 
Q 1991 1309 1228 531 
z
" transform="scale(0.015625)"/>
       </defs>
       <use xlink:href="#DejaVuSans-32"/>
       <use xlink:href="#DejaVuSans-30" x="63.623047"/>
      </g>
     </g>
    </g>
    <g id="xtick_3">
     <g id="line2d_3">
      <g>
       <use xlink:href="#meaabc15217" x="160.177904" y="294.73" style="stroke: #000000; stroke-width: 0.8"/>
      </g>
     </g>
     <g id="text_3">
      <!-- 30 -->
      <g transform="translate(162.937279 314.455)rotate(-90)scale(0.1 -0.1)">
       <defs>
        <path id="DejaVuSans-33" d="M 2597 2516 
Q 3050 2419 3304 2112 
Q 3559 1806 3559 1356 
Q 3559 666 3084 287 
Q 2609 -91 1734 -91 
Q 1441 -91 1130 -33 
Q 819 25 488 141 
L 488 750 
Q 750 597 1062 519 
Q 1375 441 1716 441 
Q 2309 441 2620 675 
Q 2931 909 2931 1356 
Q 2931 1769 2642 2001 
Q 2353 2234 1838 2234 
L 1294 2234 
L 1294 2753 
L 1863 2753 
Q 2328 2753 2575 2939 
Q 2822 3125 2822 3475 
Q 2822 3834 2567 4026 
Q 2313 4219 1838 4219 
Q 1578 4219 1281 4162 
Q 984 4106 628 3988 
L 628 4550 
Q 988 4650 1302 4700 
Q 1616 4750 1894 4750 
Q 2613 4750 3031 4423 
Q 3450 4097 3450 3541 
Q 3450 3153 3228 2886 
Q 3006 2619 2597 2516 
z
" transform="scale(0.015625)"/>
       </defs>
       <use xlink:href="#DejaVuSans-33"/>
       <use xlink:href="#DejaVuSans-30" x="63.623047"/>
      </g>
     </g>
    </g>
    <g id="xtick_4">
     <g id="line2d_4">
      <g>
       <use xlink:href="#meaabc15217" x="196.910742" y="294.73" style="stroke: #000000; stroke-width: 0.8"/>
      </g>
     </g>
     <g id="text_4">
      <!-- 40 -->
      <g transform="translate(199.670117 314.455)rotate(-90)scale(0.1 -0.1)">
       <defs>
        <path id="DejaVuSans-34" d="M 2419 4116 
L 825 1625 
L 2419 1625 
L 2419 4116 
z
M 2253 4666 
L 3047 4666 
L 3047 1625 
L 3713 1625 
L 3713 1100 
L 3047 1100 
L 3047 0 
L 2419 0 
L 2419 1100 
L 313 1100 
L 313 1709 
L 2253 4666 
z
" transform="scale(0.015625)"/>
       </defs>
       <use xlink:href="#DejaVuSans-34"/>
       <use xlink:href="#DejaVuSans-30" x="63.623047"/>
      </g>
     </g>
    </g>
    <g id="xtick_5">
     <g id="line2d_5">
      <g>
       <use xlink:href="#meaabc15217" x="233.643581" y="294.73" style="stroke: #000000; stroke-width: 0.8"/>
      </g>
     </g>
     <g id="text_5">
      <!-- 50 -->
      <g transform="translate(236.402956 314.455)rotate(-90)scale(0.1 -0.1)">
       <defs>
        <path id="DejaVuSans-35" d="M 691 4666 
L 3169 4666 
L 3169 4134 
L 1269 4134 
L 1269 2991 
Q 1406 3038 1543 3061 
Q 1681 3084 1819 3084 
Q 2600 3084 3056 2656 
Q 3513 2228 3513 1497 
Q 3513 744 3044 326 
Q 2575 -91 1722 -91 
Q 1428 -91 1123 -41 
Q 819 9 494 109 
L 494 744 
Q 775 591 1075 516 
Q 1375 441 1709 441 
Q 2250 441 2565 725 
Q 2881 1009 2881 1497 
Q 2881 1984 2565 2268 
Q 2250 2553 1709 2553 
Q 1456 2553 1204 2497 
Q 953 2441 691 2322 
L 691 4666 
z
" transform="scale(0.015625)"/>
       </defs>
       <use xlink:href="#DejaVuSans-35"/>
       <use xlink:href="#DejaVuSans-30" x="63.623047"/>
      </g>
     </g>
    </g>
    <g id="xtick_6">
     <g id="line2d_6">
      <g>
       <use xlink:href="#meaabc15217" x="270.376419" y="294.73" style="stroke: #000000; stroke-width: 0.8"/>
      </g>
     </g>
     <g id="text_6">
      <!-- 60 -->
      <g transform="translate(273.135794 314.455)rotate(-90)scale(0.1 -0.1)">
       <defs>
        <path id="DejaVuSans-36" d="M 2113 2584 
Q 1688 2584 1439 2293 
Q 1191 2003 1191 1497 
Q 1191 994 1439 701 
Q 1688 409 2113 409 
Q 2538 409 2786 701 
Q 3034 994 3034 1497 
Q 3034 2003 2786 2293 
Q 2538 2584 2113 2584 
z
M 3366 4563 
L 3366 3988 
Q 3128 4100 2886 4159 
Q 2644 4219 2406 4219 
Q 1781 4219 1451 3797 
Q 1122 3375 1075 2522 
Q 1259 2794 1537 2939 
Q 1816 3084 2150 3084 
Q 2853 3084 3261 2657 
Q 3669 2231 3669 1497 
Q 3669 778 3244 343 
Q 2819 -91 2113 -91 
Q 1303 -91 875 529 
Q 447 1150 447 2328 
Q 447 3434 972 4092 
Q 1497 4750 2381 4750 
Q 2619 4750 2861 4703 
Q 3103 4656 3366 4563 
z
" transform="scale(0.015625)"/>
       </defs>
       <use xlink:href="#DejaVuSans-36"/>
       <use xlink:href="#DejaVuSans-30" x="63.623047"/>
      </g>
     </g>
    </g>
    <g id="xtick_7">
     <g id="line2d_7">
      <g>
       <use xlink:href="#meaabc15217" x="307.109258" y="294.73" style="stroke: #000000; stroke-width: 0.8"/>
      </g>
     </g>
     <g id="text_7">
      <!-- 70 -->
      <g transform="translate(309.868633 314.455)rotate(-90)scale(0.1 -0.1)">
       <defs>
        <path id="DejaVuSans-37" d="M 525 4666 
L 3525 4666 
L 3525 4397 
L 1831 0 
L 1172 0 
L 2766 4134 
L 525 4134 
L 525 4666 
z
" transform="scale(0.015625)"/>
       </defs>
       <use xlink:href="#DejaVuSans-37"/>
       <use xlink:href="#DejaVuSans-30" x="63.623047"/>
      </g>
     </g>
    </g>
    <g id="xtick_8">
     <g id="line2d_8">
      <g>
       <use xlink:href="#meaabc15217" x="343.842096" y="294.73" style="stroke: #000000; stroke-width: 0.8"/>
      </g>
     </g>
     <g id="text_8">
      <!-- 80 -->
      <g transform="translate(346.601471 314.455)rotate(-90)scale(0.1 -0.1)">
       <defs>
        <path id="DejaVuSans-38" d="M 2034 2216 
Q 1584 2216 1326 1975 
Q 1069 1734 1069 1313 
Q 1069 891 1326 650 
Q 1584 409 2034 409 
Q 2484 409 2743 651 
Q 3003 894 3003 1313 
Q 3003 1734 2745 1975 
Q 2488 2216 2034 2216 
z
M 1403 2484 
Q 997 2584 770 2862 
Q 544 3141 544 3541 
Q 544 4100 942 4425 
Q 1341 4750 2034 4750 
Q 2731 4750 3128 4425 
Q 3525 4100 3525 3541 
Q 3525 3141 3298 2862 
Q 3072 2584 2669 2484 
Q 3125 2378 3379 2068 
Q 3634 1759 3634 1313 
Q 3634 634 3220 271 
Q 2806 -91 2034 -91 
Q 1263 -91 848 271 
Q 434 634 434 1313 
Q 434 1759 690 2068 
Q 947 2378 1403 2484 
z
M 1172 3481 
Q 1172 3119 1398 2916 
Q 1625 2713 2034 2713 
Q 2441 2713 2670 2916 
Q 2900 3119 2900 3481 
Q 2900 3844 2670 4047 
Q 2441 4250 2034 4250 
Q 1625 4250 1398 4047 
Q 1172 3844 1172 3481 
z
" transform="scale(0.015625)"/>
       </defs>
       <use xlink:href="#DejaVuSans-38"/>
       <use xlink:href="#DejaVuSans-30" x="63.623047"/>
      </g>
     </g>
    </g>
    <g id="xtick_9">
     <g id="line2d_9">
      <g>
       <use xlink:href="#meaabc15217" x="380.574935" y="294.73" style="stroke: #000000; stroke-width: 0.8"/>
      </g>
     </g>
     <g id="text_9">
      <!-- 90 -->
      <g transform="translate(383.33431 314.455)rotate(-90)scale(0.1 -0.1)">
       <defs>
        <path id="DejaVuSans-39" d="M 703 97 
L 703 672 
Q 941 559 1184 500 
Q 1428 441 1663 441 
Q 2288 441 2617 861 
Q 2947 1281 2994 2138 
Q 2813 1869 2534 1725 
Q 2256 1581 1919 1581 
Q 1219 1581 811 2004 
Q 403 2428 403 3163 
Q 403 3881 828 4315 
Q 1253 4750 1959 4750 
Q 2769 4750 3195 4129 
Q 3622 3509 3622 2328 
Q 3622 1225 3098 567 
Q 2575 -91 1691 -91 
Q 1453 -91 1209 -44 
Q 966 3 703 97 
z
M 1959 2075 
Q 2384 2075 2632 2365 
Q 2881 2656 2881 3163 
Q 2881 3666 2632 3958 
Q 2384 4250 1959 4250 
Q 1534 4250 1286 3958 
Q 1038 3666 1038 3163 
Q 1038 2656 1286 2365 
Q 1534 2075 1959 2075 
z
" transform="scale(0.015625)"/>
       </defs>
       <use xlink:href="#DejaVuSans-39"/>
       <use xlink:href="#DejaVuSans-30" x="63.623047"/>
      </g>
     </g>
    </g>
    <g id="xtick_10">
     <g id="line2d_10">
      <g>
       <use xlink:href="#meaabc15217" x="417.307774" y="294.73" style="stroke: #000000; stroke-width: 0.8"/>
      </g>
     </g>
     <g id="text_10">
      <!-- 100 -->
      <g transform="translate(420.067149 320.8175)rotate(-90)scale(0.1 -0.1)">
       <use xlink:href="#DejaVuSans-31"/>
       <use xlink:href="#DejaVuSans-30" x="63.623047"/>
       <use xlink:href="#DejaVuSans-30" x="127.246094"/>
      </g>
     </g>
    </g>
    <g id="text_11">
     <!-- Amount -->
     <g transform="translate(232.362344 332.415937)scale(0.1 -0.1)">
      <defs>
       <path id="DejaVuSans-41" d="M 2188 4044 
L 1331 1722 
L 3047 1722 
L 2188 4044 
z
M 1831 4666 
L 2547 4666 
L 4325 0 
L 3669 0 
L 3244 1197 
L 1141 1197 
L 716 0 
L 50 0 
L 1831 4666 
z
" transform="scale(0.015625)"/>
       <path id="DejaVuSans-6d" d="M 3328 2828 
Q 3544 3216 3844 3400 
Q 4144 3584 4550 3584 
Q 5097 3584 5394 3201 
Q 5691 2819 5691 2113 
L 5691 0 
L 5113 0 
L 5113 2094 
Q 5113 2597 4934 2840 
Q 4756 3084 4391 3084 
Q 3944 3084 3684 2787 
Q 3425 2491 3425 1978 
L 3425 0 
L 2847 0 
L 2847 2094 
Q 2847 2600 2669 2842 
Q 2491 3084 2119 3084 
Q 1678 3084 1418 2786 
Q 1159 2488 1159 1978 
L 1159 0 
L 581 0 
L 581 3500 
L 1159 3500 
L 1159 2956 
Q 1356 3278 1631 3431 
Q 1906 3584 2284 3584 
Q 2666 3584 2933 3390 
Q 3200 3197 3328 2828 
z
" transform="scale(0.015625)"/>
       <path id="DejaVuSans-6f" d="M 1959 3097 
Q 1497 3097 1228 2736 
Q 959 2375 959 1747 
Q 959 1119 1226 758 
Q 1494 397 1959 397 
Q 2419 397 2687 759 
Q 2956 1122 2956 1747 
Q 2956 2369 2687 2733 
Q 2419 3097 1959 3097 
z
M 1959 3584 
Q 2709 3584 3137 3096 
Q 3566 2609 3566 1747 
Q 3566 888 3137 398 
Q 2709 -91 1959 -91 
Q 1206 -91 779 398 
Q 353 888 353 1747 
Q 353 2609 779 3096 
Q 1206 3584 1959 3584 
z
" transform="scale(0.015625)"/>
       <path id="DejaVuSans-75" d="M 544 1381 
L 544 3500 
L 1119 3500 
L 1119 1403 
Q 1119 906 1312 657 
Q 1506 409 1894 409 
Q 2359 409 2629 706 
Q 2900 1003 2900 1516 
L 2900 3500 
L 3475 3500 
L 3475 0 
L 2900 0 
L 2900 538 
Q 2691 219 2414 64 
Q 2138 -91 1772 -91 
Q 1169 -91 856 284 
Q 544 659 544 1381 
z
M 1991 3584 
L 1991 3584 
z
" transform="scale(0.015625)"/>
       <path id="DejaVuSans-6e" d="M 3513 2113 
L 3513 0 
L 2938 0 
L 2938 2094 
Q 2938 2591 2744 2837 
Q 2550 3084 2163 3084 
Q 1697 3084 1428 2787 
Q 1159 2491 1159 1978 
L 1159 0 
L 581 0 
L 581 3500 
L 1159 3500 
L 1159 2956 
Q 1366 3272 1645 3428 
Q 1925 3584 2291 3584 
Q 2894 3584 3203 3211 
Q 3513 2838 3513 2113 
z
" transform="scale(0.015625)"/>
       <path id="DejaVuSans-74" d="M 1172 4494 
L 1172 3500 
L 2356 3500 
L 2356 3053 
L 1172 3053 
L 1172 1153 
Q 1172 725 1289 603 
Q 1406 481 1766 481 
L 2356 481 
L 2356 0 
L 1766 0 
Q 1100 0 847 248 
Q 594 497 594 1153 
L 594 3053 
L 172 3053 
L 172 3500 
L 594 3500 
L 594 4494 
L 1172 4494 
z
" transform="scale(0.015625)"/>
      </defs>
      <use xlink:href="#DejaVuSans-41"/>
      <use xlink:href="#DejaVuSans-6d" x="68.408203"/>
      <use xlink:href="#DejaVuSans-6f" x="165.820312"/>
      <use xlink:href="#DejaVuSans-75" x="227.001953"/>
      <use xlink:href="#DejaVuSans-6e" x="290.380859"/>
      <use xlink:href="#DejaVuSans-74" x="353.759766"/>
     </g>
    </g>
   </g>
   <g id="matplotlib.axis_2">
    <g id="ytick_1">
     <g id="line2d_11">
      <path d="M 54.02 294.73 
L 450 294.73 
" clip-path="url(#p6fd2f4770b)" style="fill: none; stroke: #b0b0b0; stroke-width: 0.8; stroke-linecap: square"/>
     </g>
     <g id="line2d_12">
      <defs>
       <path id="m43f3b12984" d="M 0 0 
L -3.5 0 
" style="stroke: #000000; stroke-width: 0.8"/>
      </defs>
      <g>
       <use xlink:href="#m43f3b12984" x="54.02" y="294.73" style="stroke: #000000; stroke-width: 0.8"/>
      </g>
     </g>
     <g id="text_12">
      <!-- 0.00 -->
      <g transform="translate(24.754375 298.529219)scale(0.1 -0.1)">
       <defs>
        <path id="DejaVuSans-2e" d="M 684 794 
L 1344 794 
L 1344 0 
L 684 0 
L 684 794 
z
" transform="scale(0.015625)"/>
       </defs>
       <use xlink:href="#DejaVuSans-30"/>
       <use xlink:href="#DejaVuSans-2e" x="63.623047"/>
       <use xlink:href="#DejaVuSans-30" x="95.410156"/>
       <use xlink:href="#DejaVuSans-30" x="159.033203"/>
      </g>
     </g>
    </g>
    <g id="ytick_2">
     <g id="line2d_13">
      <path d="M 54.02 261.686575 
L 450 261.686575 
" clip-path="url(#p6fd2f4770b)" style="fill: none; stroke: #b0b0b0; stroke-width: 0.8; stroke-linecap: square"/>
     </g>
     <g id="line2d_14">
      <g>
       <use xlink:href="#m43f3b12984" x="54.02" y="261.686575" style="stroke: #000000; stroke-width: 0.8"/>
      </g>
     </g>
     <g id="text_13">
      <!-- 0.05 -->
      <g transform="translate(24.754375 265.485794)scale(0.1 -0.1)">
       <use xlink:href="#DejaVuSans-30"/>
       <use xlink:href="#DejaVuSans-2e" x="63.623047"/>
       <use xlink:href="#DejaVuSans-30" x="95.410156"/>
       <use xlink:href="#DejaVuSans-35" x="159.033203"/>
      </g>
     </g>
    </g>
    <g id="ytick_3">
     <g id="line2d_15">
      <path d="M 54.02 228.643151 
L 450 228.643151 
" clip-path="url(#p6fd2f4770b)" style="fill: none; stroke: #b0b0b0; stroke-width: 0.8; stroke-linecap: square"/>
     </g>
     <g id="line2d_16">
      <g>
       <use xlink:href="#m43f3b12984" x="54.02" y="228.643151" style="stroke: #000000; stroke-width: 0.8"/>
      </g>
     </g>
     <g id="text_14">
      <!-- 0.10 -->
      <g transform="translate(24.754375 232.44237)scale(0.1 -0.1)">
       <use xlink:href="#DejaVuSans-30"/>
       <use xlink:href="#DejaVuSans-2e" x="63.623047"/>
       <use xlink:href="#DejaVuSans-31" x="95.410156"/>
       <use xlink:href="#DejaVuSans-30" x="159.033203"/>
      </g>
     </g>
    </g>
    <g id="ytick_4">
     <g id="line2d_17">
      <path d="M 54.02 195.599726 
L 450 195.599726 
" clip-path="url(#p6fd2f4770b)" style="fill: none; stroke: #b0b0b0; stroke-width: 0.8; stroke-linecap: square"/>
     </g>
     <g id="line2d_18">
      <g>
       <use xlink:href="#m43f3b12984" x="54.02" y="195.599726" style="stroke: #000000; stroke-width: 0.8"/>
      </g>
     </g>
     <g id="text_15">
      <!-- 0.15 -->
      <g transform="translate(24.754375 199.398945)scale(0.1 -0.1)">
       <use xlink:href="#DejaVuSans-30"/>
       <use xlink:href="#DejaVuSans-2e" x="63.623047"/>
       <use xlink:href="#DejaVuSans-31" x="95.410156"/>
       <use xlink:href="#DejaVuSans-35" x="159.033203"/>
      </g>
     </g>
    </g>
    <g id="ytick_5">
     <g id="line2d_19">
      <path d="M 54.02 162.556302 
L 450 162.556302 
" clip-path="url(#p6fd2f4770b)" style="fill: none; stroke: #b0b0b0; stroke-width: 0.8; stroke-linecap: square"/>
     </g>
     <g id="line2d_20">
      <g>
       <use xlink:href="#m43f3b12984" x="54.02" y="162.556302" style="stroke: #000000; stroke-width: 0.8"/>
      </g>
     </g>
     <g id="text_16">
      <!-- 0.20 -->
      <g transform="translate(24.754375 166.35552)scale(0.1 -0.1)">
       <use xlink:href="#DejaVuSans-30"/>
       <use xlink:href="#DejaVuSans-2e" x="63.623047"/>
       <use xlink:href="#DejaVuSans-32" x="95.410156"/>
       <use xlink:href="#DejaVuSans-30" x="159.033203"/>
      </g>
     </g>
    </g>
    <g id="ytick_6">
     <g id="line2d_21">
      <path d="M 54.02 129.512877 
L 450 129.512877 
" clip-path="url(#p6fd2f4770b)" style="fill: none; stroke: #b0b0b0; stroke-width: 0.8; stroke-linecap: square"/>
     </g>
     <g id="line2d_22">
      <g>
       <use xlink:href="#m43f3b12984" x="54.02" y="129.512877" style="stroke: #000000; stroke-width: 0.8"/>
      </g>
     </g>
     <g id="text_17">
      <!-- 0.25 -->
      <g transform="translate(24.754375 133.312096)scale(0.1 -0.1)">
       <use xlink:href="#DejaVuSans-30"/>
       <use xlink:href="#DejaVuSans-2e" x="63.623047"/>
       <use xlink:href="#DejaVuSans-32" x="95.410156"/>
       <use xlink:href="#DejaVuSans-35" x="159.033203"/>
      </g>
     </g>
    </g>
    <g id="ytick_7">
     <g id="line2d_23">
      <path d="M 54.02 96.469452 
L 450 96.469452 
" clip-path="url(#p6fd2f4770b)" style="fill: none; stroke: #b0b0b0; stroke-width: 0.8; stroke-linecap: square"/>
     </g>
     <g id="line2d_24">
      <g>
       <use xlink:href="#m43f3b12984" x="54.02" y="96.469452" style="stroke: #000000; stroke-width: 0.8"/>
      </g>
     </g>
     <g id="text_18">
      <!-- 0.30 -->
      <g transform="translate(24.754375 100.268671)scale(0.1 -0.1)">
       <use xlink:href="#DejaVuSans-30"/>
       <use xlink:href="#DejaVuSans-2e" x="63.623047"/>
       <use xlink:href="#DejaVuSans-33" x="95.410156"/>
       <use xlink:href="#DejaVuSans-30" x="159.033203"/>
      </g>
     </g>
    </g>
    <g id="ytick_8">
     <g id="line2d_25">
      <path d="M 54.02 63.426028 
L 450 63.426028 
" clip-path="url(#p6fd2f4770b)" style="fill: none; stroke: #b0b0b0; stroke-width: 0.8; stroke-linecap: square"/>
     </g>
     <g id="line2d_26">
      <g>
       <use xlink:href="#m43f3b12984" x="54.02" y="63.426028" style="stroke: #000000; stroke-width: 0.8"/>
      </g>
     </g>
     <g id="text_19">
      <!-- 0.35 -->
      <g transform="translate(24.754375 67.225246)scale(0.1 -0.1)">
       <use xlink:href="#DejaVuSans-30"/>
       <use xlink:href="#DejaVuSans-2e" x="63.623047"/>
       <use xlink:href="#DejaVuSans-33" x="95.410156"/>
       <use xlink:href="#DejaVuSans-35" x="159.033203"/>
      </g>
     </g>
    </g>
    <g id="ytick_9">
     <g id="line2d_27">
      <path d="M 54.02 30.382603 
L 450 30.382603 
" clip-path="url(#p6fd2f4770b)" style="fill: none; stroke: #b0b0b0; stroke-width: 0.8; stroke-linecap: square"/>
     </g>
     <g id="line2d_28">
      <g>
       <use xlink:href="#m43f3b12984" x="54.02" y="30.382603" style="stroke: #000000; stroke-width: 0.8"/>
      </g>
     </g>
     <g id="text_20">
      <!-- 0.40 -->
      <g transform="translate(24.754375 34.181822)scale(0.1 -0.1)">
       <use xlink:href="#DejaVuSans-30"/>
       <use xlink:href="#DejaVuSans-2e" x="63.623047"/>
       <use xlink:href="#DejaVuSans-34" x="95.410156"/>
       <use xlink:href="#DejaVuSans-30" x="159.033203"/>
      </g>
     </g>
    </g>
    <g id="text_21">
     <!-- Total time (ms) -->
     <g transform="translate(18.674688 198.332344)rotate(-90)scale(0.1 -0.1)">
      <defs>
       <path id="DejaVuSans-54" d="M -19 4666 
L 3928 4666 
L 3928 4134 
L 2272 4134 
L 2272 0 
L 1638 0 
L 1638 4134 
L -19 4134 
L -19 4666 
z
" transform="scale(0.015625)"/>
       <path id="DejaVuSans-61" d="M 2194 1759 
Q 1497 1759 1228 1600 
Q 959 1441 959 1056 
Q 959 750 1161 570 
Q 1363 391 1709 391 
Q 2188 391 2477 730 
Q 2766 1069 2766 1631 
L 2766 1759 
L 2194 1759 
z
M 3341 1997 
L 3341 0 
L 2766 0 
L 2766 531 
Q 2569 213 2275 61 
Q 1981 -91 1556 -91 
Q 1019 -91 701 211 
Q 384 513 384 1019 
Q 384 1609 779 1909 
Q 1175 2209 1959 2209 
L 2766 2209 
L 2766 2266 
Q 2766 2663 2505 2880 
Q 2244 3097 1772 3097 
Q 1472 3097 1187 3025 
Q 903 2953 641 2809 
L 641 3341 
Q 956 3463 1253 3523 
Q 1550 3584 1831 3584 
Q 2591 3584 2966 3190 
Q 3341 2797 3341 1997 
z
" transform="scale(0.015625)"/>
       <path id="DejaVuSans-6c" d="M 603 4863 
L 1178 4863 
L 1178 0 
L 603 0 
L 603 4863 
z
" transform="scale(0.015625)"/>
       <path id="DejaVuSans-20" transform="scale(0.015625)"/>
       <path id="DejaVuSans-69" d="M 603 3500 
L 1178 3500 
L 1178 0 
L 603 0 
L 603 3500 
z
M 603 4863 
L 1178 4863 
L 1178 4134 
L 603 4134 
L 603 4863 
z
" transform="scale(0.015625)"/>
       <path id="DejaVuSans-65" d="M 3597 1894 
L 3597 1613 
L 953 1613 
Q 991 1019 1311 708 
Q 1631 397 2203 397 
Q 2534 397 2845 478 
Q 3156 559 3463 722 
L 3463 178 
Q 3153 47 2828 -22 
Q 2503 -91 2169 -91 
Q 1331 -91 842 396 
Q 353 884 353 1716 
Q 353 2575 817 3079 
Q 1281 3584 2069 3584 
Q 2775 3584 3186 3129 
Q 3597 2675 3597 1894 
z
M 3022 2063 
Q 3016 2534 2758 2815 
Q 2500 3097 2075 3097 
Q 1594 3097 1305 2825 
Q 1016 2553 972 2059 
L 3022 2063 
z
" transform="scale(0.015625)"/>
       <path id="DejaVuSans-28" d="M 1984 4856 
Q 1566 4138 1362 3434 
Q 1159 2731 1159 2009 
Q 1159 1288 1364 580 
Q 1569 -128 1984 -844 
L 1484 -844 
Q 1016 -109 783 600 
Q 550 1309 550 2009 
Q 550 2706 781 3412 
Q 1013 4119 1484 4856 
L 1984 4856 
z
" transform="scale(0.015625)"/>
       <path id="DejaVuSans-73" d="M 2834 3397 
L 2834 2853 
Q 2591 2978 2328 3040 
Q 2066 3103 1784 3103 
Q 1356 3103 1142 2972 
Q 928 2841 928 2578 
Q 928 2378 1081 2264 
Q 1234 2150 1697 2047 
L 1894 2003 
Q 2506 1872 2764 1633 
Q 3022 1394 3022 966 
Q 3022 478 2636 193 
Q 2250 -91 1575 -91 
Q 1294 -91 989 -36 
Q 684 19 347 128 
L 347 722 
Q 666 556 975 473 
Q 1284 391 1588 391 
Q 1994 391 2212 530 
Q 2431 669 2431 922 
Q 2431 1156 2273 1281 
Q 2116 1406 1581 1522 
L 1381 1569 
Q 847 1681 609 1914 
Q 372 2147 372 2553 
Q 372 3047 722 3315 
Q 1072 3584 1716 3584 
Q 2034 3584 2315 3537 
Q 2597 3491 2834 3397 
z
" transform="scale(0.015625)"/>
       <path id="DejaVuSans-29" d="M 513 4856 
L 1013 4856 
Q 1481 4119 1714 3412 
Q 1947 2706 1947 2009 
Q 1947 1309 1714 600 
Q 1481 -109 1013 -844 
L 513 -844 
Q 928 -128 1133 580 
Q 1338 1288 1338 2009 
Q 1338 2731 1133 3434 
Q 928 4138 513 4856 
z
" transform="scale(0.015625)"/>
      </defs>
      <use xlink:href="#DejaVuSans-54"/>
      <use xlink:href="#DejaVuSans-6f" x="44.083984"/>
      <use xlink:href="#DejaVuSans-74" x="105.265625"/>
      <use xlink:href="#DejaVuSans-61" x="144.474609"/>
      <use xlink:href="#DejaVuSans-6c" x="205.753906"/>
      <use xlink:href="#DejaVuSans-20" x="233.537109"/>
      <use xlink:href="#DejaVuSans-74" x="265.324219"/>
      <use xlink:href="#DejaVuSans-69" x="304.533203"/>
      <use xlink:href="#DejaVuSans-6d" x="332.316406"/>
      <use xlink:href="#DejaVuSans-65" x="429.728516"/>
      <use xlink:href="#DejaVuSans-20" x="491.251953"/>
      <use xlink:href="#DejaVuSans-28" x="523.039062"/>
      <use xlink:href="#DejaVuSans-6d" x="562.052734"/>
      <use xlink:href="#DejaVuSans-73" x="659.464844"/>
      <use xlink:href="#DejaVuSans-29" x="711.564453"/>
     </g>
    </g>
   </g>
   <g id="LineCollection_1">
    <path d="M 86.712226 281.51263 
L 86.712226 274.903945 
" clip-path="url(#p6fd2f4770b)" style="fill: none; stroke: #000000; stroke-width: 1.5"/>
    <path d="M 123.445065 276.886551 
L 123.445065 264.990918 
" clip-path="url(#p6fd2f4770b)" style="fill: none; stroke: #000000; stroke-width: 1.5"/>
    <path d="M 160.177904 263.669181 
L 160.177904 249.130074 
" clip-path="url(#p6fd2f4770b)" style="fill: none; stroke: #000000; stroke-width: 1.5"/>
    <path d="M 196.910742 251.773548 
L 196.910742 230.625756 
" clip-path="url(#p6fd2f4770b)" style="fill: none; stroke: #000000; stroke-width: 1.5"/>
    <path d="M 233.643581 233.26923 
L 233.643581 208.156227 
" clip-path="url(#p6fd2f4770b)" style="fill: none; stroke: #000000; stroke-width: 1.5"/>
    <path d="M 270.376419 228.643151 
L 270.376419 196.921463 
" clip-path="url(#p6fd2f4770b)" style="fill: none; stroke: #000000; stroke-width: 1.5"/>
    <path d="M 307.109258 214.104044 
L 307.109258 181.060619 
" clip-path="url(#p6fd2f4770b)" style="fill: none; stroke: #000000; stroke-width: 1.5"/>
    <path d="M 343.842096 231.947493 
L 343.842096 164.538907 
" clip-path="url(#p6fd2f4770b)" style="fill: none; stroke: #000000; stroke-width: 1.5"/>
    <path d="M 380.574935 196.260595 
L 380.574935 156.608485 
" clip-path="url(#p6fd2f4770b)" style="fill: none; stroke: #000000; stroke-width: 1.5"/>
    <path d="M 417.307774 175.773671 
L 417.307774 118.938981 
" clip-path="url(#p6fd2f4770b)" style="fill: none; stroke: #000000; stroke-width: 1.5"/>
   </g>
   <g id="line2d_29">
    <defs>
     <path id="m2dd840ec91" d="M 3 0 
L -3 -0 
" style="stroke: #000000"/>
    </defs>
    <g clip-path="url(#p6fd2f4770b)">
     <use xlink:href="#m2dd840ec91" x="86.712226" y="281.51263" style="stroke: #000000"/>
     <use xlink:href="#m2dd840ec91" x="123.445065" y="276.886551" style="stroke: #000000"/>
     <use xlink:href="#m2dd840ec91" x="160.177904" y="263.669181" style="stroke: #000000"/>
     <use xlink:href="#m2dd840ec91" x="196.910742" y="251.773548" style="stroke: #000000"/>
     <use xlink:href="#m2dd840ec91" x="233.643581" y="233.26923" style="stroke: #000000"/>
     <use xlink:href="#m2dd840ec91" x="270.376419" y="228.643151" style="stroke: #000000"/>
     <use xlink:href="#m2dd840ec91" x="307.109258" y="214.104044" style="stroke: #000000"/>
     <use xlink:href="#m2dd840ec91" x="343.842096" y="231.947493" style="stroke: #000000"/>
     <use xlink:href="#m2dd840ec91" x="380.574935" y="196.260595" style="stroke: #000000"/>
     <use xlink:href="#m2dd840ec91" x="417.307774" y="175.773671" style="stroke: #000000"/>
    </g>
   </g>
   <g id="line2d_30">
    <g clip-path="url(#p6fd2f4770b)">
     <use xlink:href="#m2dd840ec91" x="86.712226" y="274.903945" style="stroke: #000000"/>
     <use xlink:href="#m2dd840ec91" x="123.445065" y="264.990918" style="stroke: #000000"/>
     <use xlink:href="#m2dd840ec91" x="160.177904" y="249.130074" style="stroke: #000000"/>
     <use xlink:href="#m2dd840ec91" x="196.910742" y="230.625756" style="stroke: #000000"/>
     <use xlink:href="#m2dd840ec91" x="233.643581" y="208.156227" style="stroke: #000000"/>
     <use xlink:href="#m2dd840ec91" x="270.376419" y="196.921463" style="stroke: #000000"/>
     <use xlink:href="#m2dd840ec91" x="307.109258" y="181.060619" style="stroke: #000000"/>
     <use xlink:href="#m2dd840ec91" x="343.842096" y="164.538907" style="stroke: #000000"/>
     <use xlink:href="#m2dd840ec91" x="380.574935" y="156.608485" style="stroke: #000000"/>
     <use xlink:href="#m2dd840ec91" x="417.307774" y="118.938981" style="stroke: #000000"/>
    </g>
   </g>
   <g id="LineCollection_2">
    <path d="M 86.712226 268.29526 
L 86.712226 263.008312 
" clip-path="url(#p6fd2f4770b)" style="fill: none; stroke: #000000; stroke-width: 1.5"/>
    <path d="M 123.445065 257.060496 
L 123.445065 249.130074 
" clip-path="url(#p6fd2f4770b)" style="fill: none; stroke: #000000; stroke-width: 1.5"/>
    <path d="M 160.177904 234.590967 
L 160.177904 221.373597 
" clip-path="url(#p6fd2f4770b)" style="fill: none; stroke: #000000; stroke-width: 1.5"/>
    <path d="M 196.910742 209.477964 
L 196.910742 190.973647 
" clip-path="url(#p6fd2f4770b)" style="fill: none; stroke: #000000; stroke-width: 1.5"/>
    <path d="M 233.643581 180.399751 
L 233.643581 161.895433 
" clip-path="url(#p6fd2f4770b)" style="fill: none; stroke: #000000; stroke-width: 1.5"/>
    <path d="M 270.376419 168.504118 
L 270.376419 144.712852 
" clip-path="url(#p6fd2f4770b)" style="fill: none; stroke: #000000; stroke-width: 1.5"/>
    <path d="M 307.109258 148.678063 
L 307.109258 120.921586 
" clip-path="url(#p6fd2f4770b)" style="fill: none; stroke: #000000; stroke-width: 1.5"/>
    <path d="M 343.842096 155.947617 
L 343.842096 113.652033 
" clip-path="url(#p6fd2f4770b)" style="fill: none; stroke: #000000; stroke-width: 1.5"/>
    <path d="M 380.574935 112.991165 
L 380.574935 78.626003 
" clip-path="url(#p6fd2f4770b)" style="fill: none; stroke: #000000; stroke-width: 1.5"/>
    <path d="M 417.307774 79.286871 
L 417.307774 39.634762 
" clip-path="url(#p6fd2f4770b)" style="fill: none; stroke: #000000; stroke-width: 1.5"/>
   </g>
   <g id="line2d_31">
    <g clip-path="url(#p6fd2f4770b)">
     <use xlink:href="#m2dd840ec91" x="86.712226" y="268.29526" style="stroke: #000000"/>
     <use xlink:href="#m2dd840ec91" x="123.445065" y="257.060496" style="stroke: #000000"/>
     <use xlink:href="#m2dd840ec91" x="160.177904" y="234.590967" style="stroke: #000000"/>
     <use xlink:href="#m2dd840ec91" x="196.910742" y="209.477964" style="stroke: #000000"/>
     <use xlink:href="#m2dd840ec91" x="233.643581" y="180.399751" style="stroke: #000000"/>
     <use xlink:href="#m2dd840ec91" x="270.376419" y="168.504118" style="stroke: #000000"/>
     <use xlink:href="#m2dd840ec91" x="307.109258" y="148.678063" style="stroke: #000000"/>
     <use xlink:href="#m2dd840ec91" x="343.842096" y="155.947617" style="stroke: #000000"/>
     <use xlink:href="#m2dd840ec91" x="380.574935" y="112.991165" style="stroke: #000000"/>
     <use xlink:href="#m2dd840ec91" x="417.307774" y="79.286871" style="stroke: #000000"/>
    </g>
   </g>
   <g id="line2d_32">
    <g clip-path="url(#p6fd2f4770b)">
     <use xlink:href="#m2dd840ec91" x="86.712226" y="263.008312" style="stroke: #000000"/>
     <use xlink:href="#m2dd840ec91" x="123.445065" y="249.130074" style="stroke: #000000"/>
     <use xlink:href="#m2dd840ec91" x="160.177904" y="221.373597" style="stroke: #000000"/>
     <use xlink:href="#m2dd840ec91" x="196.910742" y="190.973647" style="stroke: #000000"/>
     <use xlink:href="#m2dd840ec91" x="233.643581" y="161.895433" style="stroke: #000000"/>
     <use xlink:href="#m2dd840ec91" x="270.376419" y="144.712852" style="stroke: #000000"/>
     <use xlink:href="#m2dd840ec91" x="307.109258" y="120.921586" style="stroke: #000000"/>
     <use xlink:href="#m2dd840ec91" x="343.842096" y="113.652033" style="stroke: #000000"/>
     <use xlink:href="#m2dd840ec91" x="380.574935" y="78.626003" style="stroke: #000000"/>
     <use xlink:href="#m2dd840ec91" x="417.307774" y="39.634762" style="stroke: #000000"/>
    </g>
   </g>
   <g id="patch_23">
    <path d="M 54.02 294.73 
L 54.02 26.88 
" style="fill: none; stroke: #000000; stroke-width: 0.8; stroke-linejoin: miter; stroke-linecap: square"/>
   </g>
   <g id="patch_24">
    <path d="M 450 294.73 
L 450 26.88 
" style="fill: none; stroke: #000000; stroke-width: 0.8; stroke-linejoin: miter; stroke-linecap: square"/>
   </g>
   <g id="patch_25">
    <path d="M 54.02 294.73 
L 450 294.73 
" style="fill: none; stroke: #000000; stroke-width: 0.8; stroke-linejoin: miter; stroke-linecap: square"/>
   </g>
   <g id="patch_26">
    <path d="M 54.02 26.88 
L 450 26.88 
" style="fill: none; stroke: #000000; stroke-width: 0.8; stroke-linejoin: miter; stroke-linecap: square"/>
   </g>
   <g id="text_22">
    <!-- 0.03 -->
    <g transform="translate(75.579414 289.228519)scale(0.1 -0.1)">
     <use xlink:href="#DejaVuSans-30"/>
     <use xlink:href="#DejaVuSans-2e" x="63.623047"/>
     <use xlink:href="#DejaVuSans-30" x="95.410156"/>
     <use xlink:href="#DejaVuSans-33" x="159.033203"/>
    </g>
   </g>
   <g id="text_23">
    <!-- 0.04 -->
    <g transform="translate(112.312252 285.593742)scale(0.1 -0.1)">
     <use xlink:href="#DejaVuSans-30"/>
     <use xlink:href="#DejaVuSans-2e" x="63.623047"/>
     <use xlink:href="#DejaVuSans-30" x="95.410156"/>
     <use xlink:href="#DejaVuSans-34" x="159.033203"/>
    </g>
   </g>
   <g id="text_24">
    <!-- 0.06 -->
    <g transform="translate(149.045091 278.324189)scale(0.1 -0.1)">
     <use xlink:href="#DejaVuSans-30"/>
     <use xlink:href="#DejaVuSans-2e" x="63.623047"/>
     <use xlink:href="#DejaVuSans-30" x="95.410156"/>
     <use xlink:href="#DejaVuSans-36" x="159.033203"/>
    </g>
   </g>
   <g id="text_25">
    <!-- 0.08 -->
    <g transform="translate(185.77793 270.724201)scale(0.1 -0.1)">
     <use xlink:href="#DejaVuSans-30"/>
     <use xlink:href="#DejaVuSans-2e" x="63.623047"/>
     <use xlink:href="#DejaVuSans-30" x="95.410156"/>
     <use xlink:href="#DejaVuSans-38" x="159.033203"/>
    </g>
   </g>
   <g id="text_26">
    <!-- 0.11 -->
    <g transform="translate(222.510768 260.480739)scale(0.1 -0.1)">
     <use xlink:href="#DejaVuSans-30"/>
     <use xlink:href="#DejaVuSans-2e" x="63.623047"/>
     <use xlink:href="#DejaVuSans-31" x="95.410156"/>
     <use xlink:href="#DejaVuSans-31" x="159.033203"/>
    </g>
   </g>
   <g id="text_27">
    <!-- 0.12 -->
    <g transform="translate(259.243607 256.515528)scale(0.1 -0.1)">
     <use xlink:href="#DejaVuSans-30"/>
     <use xlink:href="#DejaVuSans-2e" x="63.623047"/>
     <use xlink:href="#DejaVuSans-31" x="95.410156"/>
     <use xlink:href="#DejaVuSans-32" x="159.033203"/>
    </g>
   </g>
   <g id="text_28">
    <!-- 0.15 -->
    <g transform="translate(295.976445 248.915541)scale(0.1 -0.1)">
     <use xlink:href="#DejaVuSans-30"/>
     <use xlink:href="#DejaVuSans-2e" x="63.623047"/>
     <use xlink:href="#DejaVuSans-31" x="95.410156"/>
     <use xlink:href="#DejaVuSans-35" x="159.033203"/>
    </g>
   </g>
   <g id="text_29">
    <!-- 0.15 -->
    <g transform="translate(332.709284 249.245975)scale(0.1 -0.1)">
     <use xlink:href="#DejaVuSans-30"/>
     <use xlink:href="#DejaVuSans-2e" x="63.623047"/>
     <use xlink:href="#DejaVuSans-31" x="95.410156"/>
     <use xlink:href="#DejaVuSans-35" x="159.033203"/>
    </g>
   </g>
   <g id="text_30">
    <!-- 0.18 -->
    <g transform="translate(369.442123 238.341645)scale(0.1 -0.1)">
     <use xlink:href="#DejaVuSans-30"/>
     <use xlink:href="#DejaVuSans-2e" x="63.623047"/>
     <use xlink:href="#DejaVuSans-31" x="95.410156"/>
     <use xlink:href="#DejaVuSans-38" x="159.033203"/>
    </g>
   </g>
   <g id="text_31">
    <!-- 0.22 -->
    <g transform="translate(406.174961 223.802538)scale(0.1 -0.1)">
     <use xlink:href="#DejaVuSans-30"/>
     <use xlink:href="#DejaVuSans-2e" x="63.623047"/>
     <use xlink:href="#DejaVuSans-32" x="95.410156"/>
     <use xlink:href="#DejaVuSans-32" x="159.033203"/>
    </g>
   </g>
   <g id="text_32">
    <!-- 0.02 -->
    <g transform="translate(75.579414 274.689412)scale(0.1 -0.1)">
     <use xlink:href="#DejaVuSans-30"/>
     <use xlink:href="#DejaVuSans-2e" x="63.623047"/>
     <use xlink:href="#DejaVuSans-30" x="95.410156"/>
     <use xlink:href="#DejaVuSans-32" x="159.033203"/>
    </g>
   </g>
   <g id="text_33">
    <!-- 0.03 -->
    <g transform="translate(112.312252 264.776385)scale(0.1 -0.1)">
     <use xlink:href="#DejaVuSans-30"/>
     <use xlink:href="#DejaVuSans-2e" x="63.623047"/>
     <use xlink:href="#DejaVuSans-30" x="95.410156"/>
     <use xlink:href="#DejaVuSans-33" x="159.033203"/>
    </g>
   </g>
   <g id="text_34">
    <!-- 0.04 -->
    <g transform="translate(149.045091 244.95033)scale(0.1 -0.1)">
     <use xlink:href="#DejaVuSans-30"/>
     <use xlink:href="#DejaVuSans-2e" x="63.623047"/>
     <use xlink:href="#DejaVuSans-30" x="95.410156"/>
     <use xlink:href="#DejaVuSans-34" x="159.033203"/>
    </g>
   </g>
   <g id="text_35">
    <!-- 0.06 -->
    <g transform="translate(185.77793 223.472104)scale(0.1 -0.1)">
     <use xlink:href="#DejaVuSans-30"/>
     <use xlink:href="#DejaVuSans-2e" x="63.623047"/>
     <use xlink:href="#DejaVuSans-30" x="95.410156"/>
     <use xlink:href="#DejaVuSans-36" x="159.033203"/>
    </g>
   </g>
   <g id="text_36">
    <!-- 0.07 -->
    <g transform="translate(222.510768 198.689535)scale(0.1 -0.1)">
     <use xlink:href="#DejaVuSans-30"/>
     <use xlink:href="#DejaVuSans-2e" x="63.623047"/>
     <use xlink:href="#DejaVuSans-30" x="95.410156"/>
     <use xlink:href="#DejaVuSans-37" x="159.033203"/>
    </g>
   </g>
   <g id="text_37">
    <!-- 0.09 -->
    <g transform="translate(259.243607 187.454771)scale(0.1 -0.1)">
     <use xlink:href="#DejaVuSans-30"/>
     <use xlink:href="#DejaVuSans-2e" x="63.623047"/>
     <use xlink:href="#DejaVuSans-30" x="95.410156"/>
     <use xlink:href="#DejaVuSans-39" x="159.033203"/>
    </g>
   </g>
   <g id="text_38">
    <!-- 0.10 -->
    <g transform="translate(295.976445 168.950453)scale(0.1 -0.1)">
     <use xlink:href="#DejaVuSans-30"/>
     <use xlink:href="#DejaVuSans-2e" x="63.623047"/>
     <use xlink:href="#DejaVuSans-31" x="95.410156"/>
     <use xlink:href="#DejaVuSans-30" x="159.033203"/>
    </g>
   </g>
   <g id="text_39">
    <!-- 0.10 -->
    <g transform="translate(332.709284 169.280887)scale(0.1 -0.1)">
     <use xlink:href="#DejaVuSans-30"/>
     <use xlink:href="#DejaVuSans-2e" x="63.623047"/>
     <use xlink:href="#DejaVuSans-31" x="95.410156"/>
     <use xlink:href="#DejaVuSans-30" x="159.033203"/>
    </g>
   </g>
   <g id="text_40">
    <!-- 0.12 -->
    <g transform="translate(369.442123 138.880937)scale(0.1 -0.1)">
     <use xlink:href="#DejaVuSans-30"/>
     <use xlink:href="#DejaVuSans-2e" x="63.623047"/>
     <use xlink:href="#DejaVuSans-31" x="95.410156"/>
     <use xlink:href="#DejaVuSans-32" x="159.033203"/>
    </g>
   </g>
   <g id="text_41">
    <!-- 0.13 -->
    <g transform="translate(406.174961 106.167946)scale(0.1 -0.1)">
     <use xlink:href="#DejaVuSans-30"/>
     <use xlink:href="#DejaVuSans-2e" x="63.623047"/>
     <use xlink:href="#DejaVuSans-31" x="95.410156"/>
     <use xlink:href="#DejaVuSans-33" x="159.033203"/>
    </g>
   </g>
   <g id="text_42">
    <!-- Tessellation time for quadratic_bezier_curve (1000 trials) -->
    <g transform="translate(81.134688 20.88)scale(0.12 -0.12)">
     <defs>
      <path id="DejaVuSans-66" d="M 2375 4863 
L 2375 4384 
L 1825 4384 
Q 1516 4384 1395 4259 
Q 1275 4134 1275 3809 
L 1275 3500 
L 2222 3500 
L 2222 3053 
L 1275 3053 
L 1275 0 
L 697 0 
L 697 3053 
L 147 3053 
L 147 3500 
L 697 3500 
L 697 3744 
Q 697 4328 969 4595 
Q 1241 4863 1831 4863 
L 2375 4863 
z
" transform="scale(0.015625)"/>
      <path id="DejaVuSans-72" d="M 2631 2963 
Q 2534 3019 2420 3045 
Q 2306 3072 2169 3072 
Q 1681 3072 1420 2755 
Q 1159 2438 1159 1844 
L 1159 0 
L 581 0 
L 581 3500 
L 1159 3500 
L 1159 2956 
Q 1341 3275 1631 3429 
Q 1922 3584 2338 3584 
Q 2397 3584 2469 3576 
Q 2541 3569 2628 3553 
L 2631 2963 
z
" transform="scale(0.015625)"/>
      <path id="DejaVuSans-71" d="M 947 1747 
Q 947 1113 1208 752 
Q 1469 391 1925 391 
Q 2381 391 2643 752 
Q 2906 1113 2906 1747 
Q 2906 2381 2643 2742 
Q 2381 3103 1925 3103 
Q 1469 3103 1208 2742 
Q 947 2381 947 1747 
z
M 2906 525 
Q 2725 213 2448 61 
Q 2172 -91 1784 -91 
Q 1150 -91 751 415 
Q 353 922 353 1747 
Q 353 2572 751 3078 
Q 1150 3584 1784 3584 
Q 2172 3584 2448 3432 
Q 2725 3281 2906 2969 
L 2906 3500 
L 3481 3500 
L 3481 -1331 
L 2906 -1331 
L 2906 525 
z
" transform="scale(0.015625)"/>
      <path id="DejaVuSans-64" d="M 2906 2969 
L 2906 4863 
L 3481 4863 
L 3481 0 
L 2906 0 
L 2906 525 
Q 2725 213 2448 61 
Q 2172 -91 1784 -91 
Q 1150 -91 751 415 
Q 353 922 353 1747 
Q 353 2572 751 3078 
Q 1150 3584 1784 3584 
Q 2172 3584 2448 3432 
Q 2725 3281 2906 2969 
z
M 947 1747 
Q 947 1113 1208 752 
Q 1469 391 1925 391 
Q 2381 391 2643 752 
Q 2906 1113 2906 1747 
Q 2906 2381 2643 2742 
Q 2381 3103 1925 3103 
Q 1469 3103 1208 2742 
Q 947 2381 947 1747 
z
" transform="scale(0.015625)"/>
      <path id="DejaVuSans-63" d="M 3122 3366 
L 3122 2828 
Q 2878 2963 2633 3030 
Q 2388 3097 2138 3097 
Q 1578 3097 1268 2742 
Q 959 2388 959 1747 
Q 959 1106 1268 751 
Q 1578 397 2138 397 
Q 2388 397 2633 464 
Q 2878 531 3122 666 
L 3122 134 
Q 2881 22 2623 -34 
Q 2366 -91 2075 -91 
Q 1284 -91 818 406 
Q 353 903 353 1747 
Q 353 2603 823 3093 
Q 1294 3584 2113 3584 
Q 2378 3584 2631 3529 
Q 2884 3475 3122 3366 
z
" transform="scale(0.015625)"/>
      <path id="DejaVuSans-5f" d="M 3263 -1063 
L 3263 -1509 
L -63 -1509 
L -63 -1063 
L 3263 -1063 
z
" transform="scale(0.015625)"/>
      <path id="DejaVuSans-62" d="M 3116 1747 
Q 3116 2381 2855 2742 
Q 2594 3103 2138 3103 
Q 1681 3103 1420 2742 
Q 1159 2381 1159 1747 
Q 1159 1113 1420 752 
Q 1681 391 2138 391 
Q 2594 391 2855 752 
Q 3116 1113 3116 1747 
z
M 1159 2969 
Q 1341 3281 1617 3432 
Q 1894 3584 2278 3584 
Q 2916 3584 3314 3078 
Q 3713 2572 3713 1747 
Q 3713 922 3314 415 
Q 2916 -91 2278 -91 
Q 1894 -91 1617 61 
Q 1341 213 1159 525 
L 1159 0 
L 581 0 
L 581 4863 
L 1159 4863 
L 1159 2969 
z
" transform="scale(0.015625)"/>
      <path id="DejaVuSans-7a" d="M 353 3500 
L 3084 3500 
L 3084 2975 
L 922 459 
L 3084 459 
L 3084 0 
L 275 0 
L 275 525 
L 2438 3041 
L 353 3041 
L 353 3500 
z
" transform="scale(0.015625)"/>
      <path id="DejaVuSans-76" d="M 191 3500 
L 800 3500 
L 1894 563 
L 2988 3500 
L 3597 3500 
L 2284 0 
L 1503 0 
L 191 3500 
z
" transform="scale(0.015625)"/>
     </defs>
     <use xlink:href="#DejaVuSans-54"/>
     <use xlink:href="#DejaVuSans-65" x="44.083984"/>
     <use xlink:href="#DejaVuSans-73" x="105.607422"/>
     <use xlink:href="#DejaVuSans-73" x="157.707031"/>
     <use xlink:href="#DejaVuSans-65" x="209.806641"/>
     <use xlink:href="#DejaVuSans-6c" x="271.330078"/>
     <use xlink:href="#DejaVuSans-6c" x="299.113281"/>
     <use xlink:href="#DejaVuSans-61" x="326.896484"/>
     <use xlink:href="#DejaVuSans-74" x="388.175781"/>
     <use xlink:href="#DejaVuSans-69" x="427.384766"/>
     <use xlink:href="#DejaVuSans-6f" x="455.167969"/>
     <use xlink:href="#DejaVuSans-6e" x="516.349609"/>
     <use xlink:href="#DejaVuSans-20" x="579.728516"/>
     <use xlink:href="#DejaVuSans-74" x="611.515625"/>
     <use xlink:href="#DejaVuSans-69" x="650.724609"/>
     <use xlink:href="#DejaVuSans-6d" x="678.507812"/>
     <use xlink:href="#DejaVuSans-65" x="775.919922"/>
     <use xlink:href="#DejaVuSans-20" x="837.443359"/>
     <use xlink:href="#DejaVuSans-66" x="869.230469"/>
     <use xlink:href="#DejaVuSans-6f" x="904.435547"/>
     <use xlink:href="#DejaVuSans-72" x="965.617188"/>
     <use xlink:href="#DejaVuSans-20" x="1006.730469"/>
     <use xlink:href="#DejaVuSans-71" x="1038.517578"/>
     <use xlink:href="#DejaVuSans-75" x="1101.994141"/>
     <use xlink:href="#DejaVuSans-61" x="1165.373047"/>
     <use xlink:href="#DejaVuSans-64" x="1226.652344"/>
     <use xlink:href="#DejaVuSans-72" x="1290.128906"/>
     <use xlink:href="#DejaVuSans-61" x="1331.242188"/>
     <use xlink:href="#DejaVuSans-74" x="1392.521484"/>
     <use xlink:href="#DejaVuSans-69" x="1431.730469"/>
     <use xlink:href="#DejaVuSans-63" x="1459.513672"/>
     <use xlink:href="#DejaVuSans-5f" x="1514.494141"/>
     <use xlink:href="#DejaVuSans-62" x="1564.494141"/>
     <use xlink:href="#DejaVuSans-65" x="1627.970703"/>
     <use xlink:href="#DejaVuSans-7a" x="1689.494141"/>
     <use xlink:href="#DejaVuSans-69" x="1741.984375"/>
     <use xlink:href="#DejaVuSans-65" x="1769.767578"/>
     <use xlink:href="#DejaVuSans-72" x="1831.291016"/>
     <use xlink:href="#DejaVuSans-5f" x="1872.404297"/>
     <use xlink:href="#DejaVuSans-63" x="1922.404297"/>
     <use xlink:href="#DejaVuSans-75" x="1977.384766"/>
     <use xlink:href="#DejaVuSans-72" x="2040.763672"/>
     <use xlink:href="#DejaVuSans-76" x="2081.876953"/>
     <use xlink:href="#DejaVuSans-65" x="2141.056641"/>
     <use xlink:href="#DejaVuSans-20" x="2202.580078"/>
     <use xlink:href="#DejaVuSans-28" x="2234.367188"/>
     <use xlink:href="#DejaVuSans-31" x="2273.380859"/>
     <use xlink:href="#DejaVuSans-30" x="2337.003906"/>
     <use xlink:href="#DejaVuSans-30" x="2400.626953"/>
     <use xlink:href="#DejaVuSans-30" x="2464.25"/>
     <use xlink:href="#DejaVuSans-20" x="2527.873047"/>
     <use xlink:href="#DejaVuSans-74" x="2559.660156"/>
     <use xlink:href="#DejaVuSans-72" x="2598.869141"/>
     <use xlink:href="#DejaVuSans-69" x="2639.982422"/>
     <use xlink:href="#DejaVuSans-61" x="2667.765625"/>
     <use xlink:href="#DejaVuSans-6c" x="2729.044922"/>
     <use xlink:href="#DejaVuSans-73" x="2756.828125"/>
     <use xlink:href="#DejaVuSans-29" x="2808.927734"/>
    </g>
   </g>
   <g id="legend_1">
    <g id="patch_27">
     <path d="M 61.02 64.23625 
L 153.999688 64.23625 
Q 155.999688 64.23625 155.999688 62.23625 
L 155.999688 33.88 
Q 155.999688 31.88 153.999688 31.88 
L 61.02 31.88 
Q 59.02 31.88 59.02 33.88 
L 59.02 62.23625 
Q 59.02 64.23625 61.02 64.23625 
z
" style="fill: #ffffff; opacity: 0.8; stroke: #cccccc; stroke-linejoin: miter"/>
    </g>
    <g id="patch_28">
     <path d="M 63.02 43.478437 
L 83.02 43.478437 
L 83.02 36.478437 
L 63.02 36.478437 
z
" style="fill: #1f77b4; opacity: 0.5"/>
    </g>
    <g id="text_43">
     <!-- Initialization -->
     <g transform="translate(91.02 43.478437)scale(0.1 -0.1)">
      <defs>
       <path id="DejaVuSans-49" d="M 628 4666 
L 1259 4666 
L 1259 0 
L 628 0 
L 628 4666 
z
" transform="scale(0.015625)"/>
      </defs>
      <use xlink:href="#DejaVuSans-49"/>
      <use xlink:href="#DejaVuSans-6e" x="29.492188"/>
      <use xlink:href="#DejaVuSans-69" x="92.871094"/>
      <use xlink:href="#DejaVuSans-74" x="120.654297"/>
      <use xlink:href="#DejaVuSans-69" x="159.863281"/>
      <use xlink:href="#DejaVuSans-61" x="187.646484"/>
      <use xlink:href="#DejaVuSans-6c" x="248.925781"/>
      <use xlink:href="#DejaVuSans-69" x="276.708984"/>
      <use xlink:href="#DejaVuSans-7a" x="304.492188"/>
      <use xlink:href="#DejaVuSans-61" x="356.982422"/>
      <use xlink:href="#DejaVuSans-74" x="418.261719"/>
      <use xlink:href="#DejaVuSans-69" x="457.470703"/>
      <use xlink:href="#DejaVuSans-6f" x="485.253906"/>
      <use xlink:href="#DejaVuSans-6e" x="546.435547"/>
     </g>
    </g>
    <g id="patch_29">
     <path d="M 63.02 58.156563 
L 83.02 58.156563 
L 83.02 51.156563 
L 63.02 51.156563 
z
" style="fill: #ff7f0e; opacity: 0.5"/>
    </g>
    <g id="text_44">
     <!-- Tessellation -->
     <g transform="translate(91.02 58.156563)scale(0.1 -0.1)">
      <use xlink:href="#DejaVuSans-54"/>
      <use xlink:href="#DejaVuSans-65" x="44.083984"/>
      <use xlink:href="#DejaVuSans-73" x="105.607422"/>
      <use xlink:href="#DejaVuSans-73" x="157.707031"/>
      <use xlink:href="#DejaVuSans-65" x="209.806641"/>
      <use xlink:href="#DejaVuSans-6c" x="271.330078"/>
      <use xlink:href="#DejaVuSans-6c" x="299.113281"/>
      <use xlink:href="#DejaVuSans-61" x="326.896484"/>
      <use xlink:href="#DejaVuSans-74" x="388.175781"/>
      <use xlink:href="#DejaVuSans-69" x="427.384766"/>
      <use xlink:href="#DejaVuSans-6f" x="455.167969"/>
      <use xlink:href="#DejaVuSans-6e" x="516.349609"/>
     </g>
    </g>
   </g>
  </g>
 </g>
 <defs>
  <clipPath id="p6fd2f4770b">
   <rect x="54.02" y="26.88" width="395.98" height="267.85"/>
  </clipPath>
 </defs>
</svg>
