<?xml version="1.0" encoding="utf-8" standalone="no"?>
<!DOCTYPE svg PUBLIC "-//W3C//DTD SVG 1.1//EN"
  "http://www.w3.org/Graphics/SVG/1.1/DTD/svg11.dtd">
<svg xmlns:xlink="http://www.w3.org/1999/xlink" width="460.8pt" height="345.6pt" viewBox="0 0 460.8 345.6" xmlns="http://www.w3.org/2000/svg" version="1.1">
 <metadata>
  <rdf:RDF xmlns:dc="http://purl.org/dc/elements/1.1/" xmlns:cc="http://creativecommons.org/ns#" xmlns:rdf="http://www.w3.org/1999/02/22-rdf-syntax-ns#">
   <cc:Work>
    <dc:type rdf:resource="http://purl.org/dc/dcmitype/StillImage"/>
    <dc:date>2022-03-25T21:41:19.654432</dc:date>
    <dc:format>image/svg+xml</dc:format>
    <dc:creator>
     <cc:Agent>
      <dc:title>Matplotlib v3.5.1, https://matplotlib.org/</dc:title>
     </cc:Agent>
    </dc:creator>
   </cc:Work>
  </rdf:RDF>
 </metadata>
 <defs>
  <style type="text/css">*{stroke-linejoin: round; stroke-linecap: butt}</style>
 </defs>
 <g id="figure_1">
  <g id="patch_1">
   <path d="M 0 345.6 
L 460.8 345.6 
L 460.8 0 
L 0 0 
z
" style="fill: #ffffff"/>
  </g>
  <g id="axes_1">
   <g id="patch_2">
    <path d="M 47.72 294.73 
L 450 294.73 
L 450 26.88 
L 47.72 26.88 
z
" style="fill: #ffffff"/>
   </g>
   <g id="patch_3">
    <path d="M 66.005455 294.73 
L 95.859258 294.73 
L 95.859258 281.279524 
L 66.005455 281.279524 
z
" clip-path="url(#pd5c2a0cea8)" style="fill: #1f77b4; opacity: 0.5"/>
   </g>
   <g id="patch_4">
    <path d="M 103.322709 294.73 
L 133.176512 294.73 
L 133.176512 273.394762 
L 103.322709 273.394762 
z
" clip-path="url(#pd5c2a0cea8)" style="fill: #1f77b4; opacity: 0.5"/>
   </g>
   <g id="patch_5">
    <path d="M 140.639963 294.73 
L 170.493766 294.73 
L 170.493766 263.654762 
L 140.639963 263.654762 
z
" clip-path="url(#pd5c2a0cea8)" style="fill: #1f77b4; opacity: 0.5"/>
   </g>
   <g id="patch_6">
    <path d="M 177.957217 294.73 
L 207.81102 294.73 
L 207.81102 250.668095 
L 177.957217 250.668095 
z
" clip-path="url(#pd5c2a0cea8)" style="fill: #1f77b4; opacity: 0.5"/>
   </g>
   <g id="patch_7">
    <path d="M 215.274471 294.73 
L 245.128275 294.73 
L 245.128275 233.970952 
L 215.274471 233.970952 
z
" clip-path="url(#pd5c2a0cea8)" style="fill: #1f77b4; opacity: 0.5"/>
   </g>
   <g id="patch_8">
    <path d="M 252.591725 294.73 
L 282.445529 294.73 
L 282.445529 236.75381 
L 252.591725 236.75381 
z
" clip-path="url(#pd5c2a0cea8)" style="fill: #1f77b4; opacity: 0.5"/>
   </g>
   <g id="patch_9">
    <path d="M 289.90898 294.73 
L 319.762783 294.73 
L 319.762783 221.448095 
L 289.90898 221.448095 
z
" clip-path="url(#pd5c2a0cea8)" style="fill: #1f77b4; opacity: 0.5"/>
   </g>
   <g id="patch_10">
    <path d="M 327.226234 294.73 
L 357.080037 294.73 
L 357.080037 217.27381 
L 327.226234 217.27381 
z
" clip-path="url(#pd5c2a0cea8)" style="fill: #1f77b4; opacity: 0.5"/>
   </g>
   <g id="patch_11">
    <path d="M 364.543488 294.73 
L 394.397291 294.73 
L 394.397291 197.33 
L 364.543488 197.33 
z
" clip-path="url(#pd5c2a0cea8)" style="fill: #1f77b4; opacity: 0.5"/>
   </g>
   <g id="patch_12">
    <path d="M 401.860742 294.73 
L 431.714545 294.73 
L 431.714545 183.415714 
L 401.860742 183.415714 
z
" clip-path="url(#pd5c2a0cea8)" style="fill: #1f77b4; opacity: 0.5"/>
   </g>
   <g id="patch_13">
    <path d="M 66.005455 281.279524 
L 95.859258 281.279524 
L 95.859258 263.190952 
L 66.005455 263.190952 
z
" clip-path="url(#pd5c2a0cea8)" style="fill: #ff7f0e; opacity: 0.5"/>
   </g>
   <g id="patch_14">
    <path d="M 103.322709 273.394762 
L 133.176512 273.394762 
L 133.176512 242.319524 
L 103.322709 242.319524 
z
" clip-path="url(#pd5c2a0cea8)" style="fill: #ff7f0e; opacity: 0.5"/>
   </g>
   <g id="patch_15">
    <path d="M 140.639963 263.654762 
L 170.493766 263.654762 
L 170.493766 219.592857 
L 140.639963 219.592857 
z
" clip-path="url(#pd5c2a0cea8)" style="fill: #ff7f0e; opacity: 0.5"/>
   </g>
   <g id="patch_16">
    <path d="M 177.957217 250.668095 
L 207.81102 250.668095 
L 207.81102 195.010952 
L 177.957217 195.010952 
z
" clip-path="url(#pd5c2a0cea8)" style="fill: #ff7f0e; opacity: 0.5"/>
   </g>
   <g id="patch_17">
    <path d="M 215.274471 233.970952 
L 245.128275 233.970952 
L 245.128275 156.514762 
L 215.274471 156.514762 
z
" clip-path="url(#pd5c2a0cea8)" style="fill: #ff7f0e; opacity: 0.5"/>
   </g>
   <g id="patch_18">
    <path d="M 252.591725 236.75381 
L 282.445529 236.75381 
L 282.445529 166.718571 
L 252.591725 166.718571 
z
" clip-path="url(#pd5c2a0cea8)" style="fill: #ff7f0e; opacity: 0.5"/>
   </g>
   <g id="patch_19">
    <path d="M 289.90898 221.448095 
L 319.762783 221.448095 
L 319.762783 143.064286 
L 289.90898 143.064286 
z
" clip-path="url(#pd5c2a0cea8)" style="fill: #ff7f0e; opacity: 0.5"/>
   </g>
   <g id="patch_20">
    <path d="M 327.226234 217.27381 
L 357.080037 217.27381 
L 357.080037 132.860476 
L 327.226234 132.860476 
z
" clip-path="url(#pd5c2a0cea8)" style="fill: #ff7f0e; opacity: 0.5"/>
   </g>
   <g id="patch_21">
    <path d="M 364.543488 197.33 
L 394.397291 197.33 
L 394.397291 91.117619 
L 364.543488 91.117619 
z
" clip-path="url(#pd5c2a0cea8)" style="fill: #ff7f0e; opacity: 0.5"/>
   </g>
   <g id="patch_22">
    <path d="M 401.860742 183.415714 
L 431.714545 183.415714 
L 431.714545 61.43381 
L 401.860742 61.43381 
z
" clip-path="url(#pd5c2a0cea8)" style="fill: #ff7f0e; opacity: 0.5"/>
   </g>
   <g id="matplotlib.axis_1">
    <g id="xtick_1">
     <g id="line2d_1">
      <defs>
       <path id="m846b13d654" d="M 0 0 
L 0 3.5 
" style="stroke: #000000; stroke-width: 0.8"/>
      </defs>
      <g>
       <use xlink:href="#m846b13d654" x="80.932356" y="294.73" style="stroke: #000000; stroke-width: 0.8"/>
      </g>
     </g>
     <g id="text_1">
      <!-- 10 -->
      <g transform="translate(83.691731 314.455)rotate(-90)scale(0.1 -0.1)">
       <defs>
        <path id="DejaVuSans-31" d="M 794 531 
L 1825 531 
L 1825 4091 
L 703 3866 
L 703 4441 
L 1819 4666 
L 2450 4666 
L 2450 531 
L 3481 531 
L 3481 0 
L 794 0 
L 794 531 
z
" transform="scale(0.015625)"/>
        <path id="DejaVuSans-30" d="M 2034 4250 
Q 1547 4250 1301 3770 
Q 1056 3291 1056 2328 
Q 1056 1369 1301 889 
Q 1547 409 2034 409 
Q 2525 409 2770 889 
Q 3016 1369 3016 2328 
Q 3016 3291 2770 3770 
Q 2525 4250 2034 4250 
z
M 2034 4750 
Q 2819 4750 3233 4129 
Q 3647 3509 3647 2328 
Q 3647 1150 3233 529 
Q 2819 -91 2034 -91 
Q 1250 -91 836 529 
Q 422 1150 422 2328 
Q 422 3509 836 4129 
Q 1250 4750 2034 4750 
z
" transform="scale(0.015625)"/>
       </defs>
       <use xlink:href="#DejaVuSans-31"/>
       <use xlink:href="#DejaVuSans-30" x="63.623047"/>
      </g>
     </g>
    </g>
    <g id="xtick_2">
     <g id="line2d_2">
      <g>
       <use xlink:href="#m846b13d654" x="118.24961" y="294.73" style="stroke: #000000; stroke-width: 0.8"/>
      </g>
     </g>
     <g id="text_2">
      <!-- 20 -->
      <g transform="translate(121.008985 314.455)rotate(-90)scale(0.1 -0.1)">
       <defs>
        <path id="DejaVuSans-32" d="M 1228 531 
L 3431 531 
L 3431 0 
L 469 0 
L 469 531 
Q 828 903 1448 1529 
Q 2069 2156 2228 2338 
Q 2531 2678 2651 2914 
Q 2772 3150 2772 3378 
Q 2772 3750 2511 3984 
Q 2250 4219 1831 4219 
Q 1534 4219 1204 4116 
Q 875 4013 500 3803 
L 500 4441 
Q 881 4594 1212 4672 
Q 1544 4750 1819 4750 
Q 2544 4750 2975 4387 
Q 3406 4025 3406 3419 
Q 3406 3131 3298 2873 
Q 3191 2616 2906 2266 
Q 2828 2175 2409 1742 
Q 1991 1309 1228 531 
z
" transform="scale(0.015625)"/>
       </defs>
       <use xlink:href="#DejaVuSans-32"/>
       <use xlink:href="#DejaVuSans-30" x="63.623047"/>
      </g>
     </g>
    </g>
    <g id="xtick_3">
     <g id="line2d_3">
      <g>
       <use xlink:href="#m846b13d654" x="155.566865" y="294.73" style="stroke: #000000; stroke-width: 0.8"/>
      </g>
     </g>
     <g id="text_3">
      <!-- 30 -->
      <g transform="translate(158.32624 314.455)rotate(-90)scale(0.1 -0.1)">
       <defs>
        <path id="DejaVuSans-33" d="M 2597 2516 
Q 3050 2419 3304 2112 
Q 3559 1806 3559 1356 
Q 3559 666 3084 287 
Q 2609 -91 1734 -91 
Q 1441 -91 1130 -33 
Q 819 25 488 141 
L 488 750 
Q 750 597 1062 519 
Q 1375 441 1716 441 
Q 2309 441 2620 675 
Q 2931 909 2931 1356 
Q 2931 1769 2642 2001 
Q 2353 2234 1838 2234 
L 1294 2234 
L 1294 2753 
L 1863 2753 
Q 2328 2753 2575 2939 
Q 2822 3125 2822 3475 
Q 2822 3834 2567 4026 
Q 2313 4219 1838 4219 
Q 1578 4219 1281 4162 
Q 984 4106 628 3988 
L 628 4550 
Q 988 4650 1302 4700 
Q 1616 4750 1894 4750 
Q 2613 4750 3031 4423 
Q 3450 4097 3450 3541 
Q 3450 3153 3228 2886 
Q 3006 2619 2597 2516 
z
" transform="scale(0.015625)"/>
       </defs>
       <use xlink:href="#DejaVuSans-33"/>
       <use xlink:href="#DejaVuSans-30" x="63.623047"/>
      </g>
     </g>
    </g>
    <g id="xtick_4">
     <g id="line2d_4">
      <g>
       <use xlink:href="#m846b13d654" x="192.884119" y="294.73" style="stroke: #000000; stroke-width: 0.8"/>
      </g>
     </g>
     <g id="text_4">
      <!-- 40 -->
      <g transform="translate(195.643494 314.455)rotate(-90)scale(0.1 -0.1)">
       <defs>
        <path id="DejaVuSans-34" d="M 2419 4116 
L 825 1625 
L 2419 1625 
L 2419 4116 
z
M 2253 4666 
L 3047 4666 
L 3047 1625 
L 3713 1625 
L 3713 1100 
L 3047 1100 
L 3047 0 
L 2419 0 
L 2419 1100 
L 313 1100 
L 313 1709 
L 2253 4666 
z
" transform="scale(0.015625)"/>
       </defs>
       <use xlink:href="#DejaVuSans-34"/>
       <use xlink:href="#DejaVuSans-30" x="63.623047"/>
      </g>
     </g>
    </g>
    <g id="xtick_5">
     <g id="line2d_5">
      <g>
       <use xlink:href="#m846b13d654" x="230.201373" y="294.73" style="stroke: #000000; stroke-width: 0.8"/>
      </g>
     </g>
     <g id="text_5">
      <!-- 50 -->
      <g transform="translate(232.960748 314.455)rotate(-90)scale(0.1 -0.1)">
       <defs>
        <path id="DejaVuSans-35" d="M 691 4666 
L 3169 4666 
L 3169 4134 
L 1269 4134 
L 1269 2991 
Q 1406 3038 1543 3061 
Q 1681 3084 1819 3084 
Q 2600 3084 3056 2656 
Q 3513 2228 3513 1497 
Q 3513 744 3044 326 
Q 2575 -91 1722 -91 
Q 1428 -91 1123 -41 
Q 819 9 494 109 
L 494 744 
Q 775 591 1075 516 
Q 1375 441 1709 441 
Q 2250 441 2565 725 
Q 2881 1009 2881 1497 
Q 2881 1984 2565 2268 
Q 2250 2553 1709 2553 
Q 1456 2553 1204 2497 
Q 953 2441 691 2322 
L 691 4666 
z
" transform="scale(0.015625)"/>
       </defs>
       <use xlink:href="#DejaVuSans-35"/>
       <use xlink:href="#DejaVuSans-30" x="63.623047"/>
      </g>
     </g>
    </g>
    <g id="xtick_6">
     <g id="line2d_6">
      <g>
       <use xlink:href="#m846b13d654" x="267.518627" y="294.73" style="stroke: #000000; stroke-width: 0.8"/>
      </g>
     </g>
     <g id="text_6">
      <!-- 60 -->
      <g transform="translate(270.278002 314.455)rotate(-90)scale(0.1 -0.1)">
       <defs>
        <path id="DejaVuSans-36" d="M 2113 2584 
Q 1688 2584 1439 2293 
Q 1191 2003 1191 1497 
Q 1191 994 1439 701 
Q 1688 409 2113 409 
Q 2538 409 2786 701 
Q 3034 994 3034 1497 
Q 3034 2003 2786 2293 
Q 2538 2584 2113 2584 
z
M 3366 4563 
L 3366 3988 
Q 3128 4100 2886 4159 
Q 2644 4219 2406 4219 
Q 1781 4219 1451 3797 
Q 1122 3375 1075 2522 
Q 1259 2794 1537 2939 
Q 1816 3084 2150 3084 
Q 2853 3084 3261 2657 
Q 3669 2231 3669 1497 
Q 3669 778 3244 343 
Q 2819 -91 2113 -91 
Q 1303 -91 875 529 
Q 447 1150 447 2328 
Q 447 3434 972 4092 
Q 1497 4750 2381 4750 
Q 2619 4750 2861 4703 
Q 3103 4656 3366 4563 
z
" transform="scale(0.015625)"/>
       </defs>
       <use xlink:href="#DejaVuSans-36"/>
       <use xlink:href="#DejaVuSans-30" x="63.623047"/>
      </g>
     </g>
    </g>
    <g id="xtick_7">
     <g id="line2d_7">
      <g>
       <use xlink:href="#m846b13d654" x="304.835881" y="294.73" style="stroke: #000000; stroke-width: 0.8"/>
      </g>
     </g>
     <g id="text_7">
      <!-- 70 -->
      <g transform="translate(307.595256 314.455)rotate(-90)scale(0.1 -0.1)">
       <defs>
        <path id="DejaVuSans-37" d="M 525 4666 
L 3525 4666 
L 3525 4397 
L 1831 0 
L 1172 0 
L 2766 4134 
L 525 4134 
L 525 4666 
z
" transform="scale(0.015625)"/>
       </defs>
       <use xlink:href="#DejaVuSans-37"/>
       <use xlink:href="#DejaVuSans-30" x="63.623047"/>
      </g>
     </g>
    </g>
    <g id="xtick_8">
     <g id="line2d_8">
      <g>
       <use xlink:href="#m846b13d654" x="342.153135" y="294.73" style="stroke: #000000; stroke-width: 0.8"/>
      </g>
     </g>
     <g id="text_8">
      <!-- 80 -->
      <g transform="translate(344.91251 314.455)rotate(-90)scale(0.1 -0.1)">
       <defs>
        <path id="DejaVuSans-38" d="M 2034 2216 
Q 1584 2216 1326 1975 
Q 1069 1734 1069 1313 
Q 1069 891 1326 650 
Q 1584 409 2034 409 
Q 2484 409 2743 651 
Q 3003 894 3003 1313 
Q 3003 1734 2745 1975 
Q 2488 2216 2034 2216 
z
M 1403 2484 
Q 997 2584 770 2862 
Q 544 3141 544 3541 
Q 544 4100 942 4425 
Q 1341 4750 2034 4750 
Q 2731 4750 3128 4425 
Q 3525 4100 3525 3541 
Q 3525 3141 3298 2862 
Q 3072 2584 2669 2484 
Q 3125 2378 3379 2068 
Q 3634 1759 3634 1313 
Q 3634 634 3220 271 
Q 2806 -91 2034 -91 
Q 1263 -91 848 271 
Q 434 634 434 1313 
Q 434 1759 690 2068 
Q 947 2378 1403 2484 
z
M 1172 3481 
Q 1172 3119 1398 2916 
Q 1625 2713 2034 2713 
Q 2441 2713 2670 2916 
Q 2900 3119 2900 3481 
Q 2900 3844 2670 4047 
Q 2441 4250 2034 4250 
Q 1625 4250 1398 4047 
Q 1172 3844 1172 3481 
z
" transform="scale(0.015625)"/>
       </defs>
       <use xlink:href="#DejaVuSans-38"/>
       <use xlink:href="#DejaVuSans-30" x="63.623047"/>
      </g>
     </g>
    </g>
    <g id="xtick_9">
     <g id="line2d_9">
      <g>
       <use xlink:href="#m846b13d654" x="379.47039" y="294.73" style="stroke: #000000; stroke-width: 0.8"/>
      </g>
     </g>
     <g id="text_9">
      <!-- 90 -->
      <g transform="translate(382.229765 314.455)rotate(-90)scale(0.1 -0.1)">
       <defs>
        <path id="DejaVuSans-39" d="M 703 97 
L 703 672 
Q 941 559 1184 500 
Q 1428 441 1663 441 
Q 2288 441 2617 861 
Q 2947 1281 2994 2138 
Q 2813 1869 2534 1725 
Q 2256 1581 1919 1581 
Q 1219 1581 811 2004 
Q 403 2428 403 3163 
Q 403 3881 828 4315 
Q 1253 4750 1959 4750 
Q 2769 4750 3195 4129 
Q 3622 3509 3622 2328 
Q 3622 1225 3098 567 
Q 2575 -91 1691 -91 
Q 1453 -91 1209 -44 
Q 966 3 703 97 
z
M 1959 2075 
Q 2384 2075 2632 2365 
Q 2881 2656 2881 3163 
Q 2881 3666 2632 3958 
Q 2384 4250 1959 4250 
Q 1534 4250 1286 3958 
Q 1038 3666 1038 3163 
Q 1038 2656 1286 2365 
Q 1534 2075 1959 2075 
z
" transform="scale(0.015625)"/>
       </defs>
       <use xlink:href="#DejaVuSans-39"/>
       <use xlink:href="#DejaVuSans-30" x="63.623047"/>
      </g>
     </g>
    </g>
    <g id="xtick_10">
     <g id="line2d_10">
      <g>
       <use xlink:href="#m846b13d654" x="416.787644" y="294.73" style="stroke: #000000; stroke-width: 0.8"/>
      </g>
     </g>
     <g id="text_10">
      <!-- 100 -->
      <g transform="translate(419.547019 320.8175)rotate(-90)scale(0.1 -0.1)">
       <use xlink:href="#DejaVuSans-31"/>
       <use xlink:href="#DejaVuSans-30" x="63.623047"/>
       <use xlink:href="#DejaVuSans-30" x="127.246094"/>
      </g>
     </g>
    </g>
    <g id="text_11">
     <!-- Amount -->
     <g transform="translate(229.212344 332.415937)scale(0.1 -0.1)">
      <defs>
       <path id="DejaVuSans-41" d="M 2188 4044 
L 1331 1722 
L 3047 1722 
L 2188 4044 
z
M 1831 4666 
L 2547 4666 
L 4325 0 
L 3669 0 
L 3244 1197 
L 1141 1197 
L 716 0 
L 50 0 
L 1831 4666 
z
" transform="scale(0.015625)"/>
       <path id="DejaVuSans-6d" d="M 3328 2828 
Q 3544 3216 3844 3400 
Q 4144 3584 4550 3584 
Q 5097 3584 5394 3201 
Q 5691 2819 5691 2113 
L 5691 0 
L 5113 0 
L 5113 2094 
Q 5113 2597 4934 2840 
Q 4756 3084 4391 3084 
Q 3944 3084 3684 2787 
Q 3425 2491 3425 1978 
L 3425 0 
L 2847 0 
L 2847 2094 
Q 2847 2600 2669 2842 
Q 2491 3084 2119 3084 
Q 1678 3084 1418 2786 
Q 1159 2488 1159 1978 
L 1159 0 
L 581 0 
L 581 3500 
L 1159 3500 
L 1159 2956 
Q 1356 3278 1631 3431 
Q 1906 3584 2284 3584 
Q 2666 3584 2933 3390 
Q 3200 3197 3328 2828 
z
" transform="scale(0.015625)"/>
       <path id="DejaVuSans-6f" d="M 1959 3097 
Q 1497 3097 1228 2736 
Q 959 2375 959 1747 
Q 959 1119 1226 758 
Q 1494 397 1959 397 
Q 2419 397 2687 759 
Q 2956 1122 2956 1747 
Q 2956 2369 2687 2733 
Q 2419 3097 1959 3097 
z
M 1959 3584 
Q 2709 3584 3137 3096 
Q 3566 2609 3566 1747 
Q 3566 888 3137 398 
Q 2709 -91 1959 -91 
Q 1206 -91 779 398 
Q 353 888 353 1747 
Q 353 2609 779 3096 
Q 1206 3584 1959 3584 
z
" transform="scale(0.015625)"/>
       <path id="DejaVuSans-75" d="M 544 1381 
L 544 3500 
L 1119 3500 
L 1119 1403 
Q 1119 906 1312 657 
Q 1506 409 1894 409 
Q 2359 409 2629 706 
Q 2900 1003 2900 1516 
L 2900 3500 
L 3475 3500 
L 3475 0 
L 2900 0 
L 2900 538 
Q 2691 219 2414 64 
Q 2138 -91 1772 -91 
Q 1169 -91 856 284 
Q 544 659 544 1381 
z
M 1991 3584 
L 1991 3584 
z
" transform="scale(0.015625)"/>
       <path id="DejaVuSans-6e" d="M 3513 2113 
L 3513 0 
L 2938 0 
L 2938 2094 
Q 2938 2591 2744 2837 
Q 2550 3084 2163 3084 
Q 1697 3084 1428 2787 
Q 1159 2491 1159 1978 
L 1159 0 
L 581 0 
L 581 3500 
L 1159 3500 
L 1159 2956 
Q 1366 3272 1645 3428 
Q 1925 3584 2291 3584 
Q 2894 3584 3203 3211 
Q 3513 2838 3513 2113 
z
" transform="scale(0.015625)"/>
       <path id="DejaVuSans-74" d="M 1172 4494 
L 1172 3500 
L 2356 3500 
L 2356 3053 
L 1172 3053 
L 1172 1153 
Q 1172 725 1289 603 
Q 1406 481 1766 481 
L 2356 481 
L 2356 0 
L 1766 0 
Q 1100 0 847 248 
Q 594 497 594 1153 
L 594 3053 
L 172 3053 
L 172 3500 
L 594 3500 
L 594 4494 
L 1172 4494 
z
" transform="scale(0.015625)"/>
      </defs>
      <use xlink:href="#DejaVuSans-41"/>
      <use xlink:href="#DejaVuSans-6d" x="68.408203"/>
      <use xlink:href="#DejaVuSans-6f" x="165.820312"/>
      <use xlink:href="#DejaVuSans-75" x="227.001953"/>
      <use xlink:href="#DejaVuSans-6e" x="290.380859"/>
      <use xlink:href="#DejaVuSans-74" x="353.759766"/>
     </g>
    </g>
   </g>
   <g id="matplotlib.axis_2">
    <g id="ytick_1">
     <g id="line2d_11">
      <path d="M 47.72 294.73 
L 450 294.73 
" clip-path="url(#pd5c2a0cea8)" style="fill: none; stroke: #b0b0b0; stroke-width: 0.8; stroke-linecap: square"/>
     </g>
     <g id="line2d_12">
      <defs>
       <path id="mbd605ffd96" d="M 0 0 
L -3.5 0 
" style="stroke: #000000; stroke-width: 0.8"/>
      </defs>
      <g>
       <use xlink:href="#mbd605ffd96" x="47.72" y="294.73" style="stroke: #000000; stroke-width: 0.8"/>
      </g>
     </g>
     <g id="text_12">
      <!-- 0.0 -->
      <g transform="translate(24.816875 298.529219)scale(0.1 -0.1)">
       <defs>
        <path id="DejaVuSans-2e" d="M 684 794 
L 1344 794 
L 1344 0 
L 684 0 
L 684 794 
z
" transform="scale(0.015625)"/>
       </defs>
       <use xlink:href="#DejaVuSans-30"/>
       <use xlink:href="#DejaVuSans-2e" x="63.623047"/>
       <use xlink:href="#DejaVuSans-30" x="95.410156"/>
      </g>
     </g>
    </g>
    <g id="ytick_2">
     <g id="line2d_13">
      <path d="M 47.72 248.349048 
L 450 248.349048 
" clip-path="url(#pd5c2a0cea8)" style="fill: none; stroke: #b0b0b0; stroke-width: 0.8; stroke-linecap: square"/>
     </g>
     <g id="line2d_14">
      <g>
       <use xlink:href="#mbd605ffd96" x="47.72" y="248.349048" style="stroke: #000000; stroke-width: 0.8"/>
      </g>
     </g>
     <g id="text_13">
      <!-- 0.1 -->
      <g transform="translate(24.816875 252.148266)scale(0.1 -0.1)">
       <use xlink:href="#DejaVuSans-30"/>
       <use xlink:href="#DejaVuSans-2e" x="63.623047"/>
       <use xlink:href="#DejaVuSans-31" x="95.410156"/>
      </g>
     </g>
    </g>
    <g id="ytick_3">
     <g id="line2d_15">
      <path d="M 47.72 201.968095 
L 450 201.968095 
" clip-path="url(#pd5c2a0cea8)" style="fill: none; stroke: #b0b0b0; stroke-width: 0.8; stroke-linecap: square"/>
     </g>
     <g id="line2d_16">
      <g>
       <use xlink:href="#mbd605ffd96" x="47.72" y="201.968095" style="stroke: #000000; stroke-width: 0.8"/>
      </g>
     </g>
     <g id="text_14">
      <!-- 0.2 -->
      <g transform="translate(24.816875 205.767314)scale(0.1 -0.1)">
       <use xlink:href="#DejaVuSans-30"/>
       <use xlink:href="#DejaVuSans-2e" x="63.623047"/>
       <use xlink:href="#DejaVuSans-32" x="95.410156"/>
      </g>
     </g>
    </g>
    <g id="ytick_4">
     <g id="line2d_17">
      <path d="M 47.72 155.587143 
L 450 155.587143 
" clip-path="url(#pd5c2a0cea8)" style="fill: none; stroke: #b0b0b0; stroke-width: 0.8; stroke-linecap: square"/>
     </g>
     <g id="line2d_18">
      <g>
       <use xlink:href="#mbd605ffd96" x="47.72" y="155.587143" style="stroke: #000000; stroke-width: 0.8"/>
      </g>
     </g>
     <g id="text_15">
      <!-- 0.3 -->
      <g transform="translate(24.816875 159.386362)scale(0.1 -0.1)">
       <use xlink:href="#DejaVuSans-30"/>
       <use xlink:href="#DejaVuSans-2e" x="63.623047"/>
       <use xlink:href="#DejaVuSans-33" x="95.410156"/>
      </g>
     </g>
    </g>
    <g id="ytick_5">
     <g id="line2d_19">
      <path d="M 47.72 109.20619 
L 450 109.20619 
" clip-path="url(#pd5c2a0cea8)" style="fill: none; stroke: #b0b0b0; stroke-width: 0.8; stroke-linecap: square"/>
     </g>
     <g id="line2d_20">
      <g>
       <use xlink:href="#mbd605ffd96" x="47.72" y="109.20619" style="stroke: #000000; stroke-width: 0.8"/>
      </g>
     </g>
     <g id="text_16">
      <!-- 0.4 -->
      <g transform="translate(24.816875 113.005409)scale(0.1 -0.1)">
       <use xlink:href="#DejaVuSans-30"/>
       <use xlink:href="#DejaVuSans-2e" x="63.623047"/>
       <use xlink:href="#DejaVuSans-34" x="95.410156"/>
      </g>
     </g>
    </g>
    <g id="ytick_6">
     <g id="line2d_21">
      <path d="M 47.72 62.825238 
L 450 62.825238 
" clip-path="url(#pd5c2a0cea8)" style="fill: none; stroke: #b0b0b0; stroke-width: 0.8; stroke-linecap: square"/>
     </g>
     <g id="line2d_22">
      <g>
       <use xlink:href="#mbd605ffd96" x="47.72" y="62.825238" style="stroke: #000000; stroke-width: 0.8"/>
      </g>
     </g>
     <g id="text_17">
      <!-- 0.5 -->
      <g transform="translate(24.816875 66.624457)scale(0.1 -0.1)">
       <use xlink:href="#DejaVuSans-30"/>
       <use xlink:href="#DejaVuSans-2e" x="63.623047"/>
       <use xlink:href="#DejaVuSans-35" x="95.410156"/>
      </g>
     </g>
    </g>
    <g id="text_18">
     <!-- Total time (ms) -->
     <g transform="translate(18.737188 198.332344)rotate(-90)scale(0.1 -0.1)">
      <defs>
       <path id="DejaVuSans-54" d="M -19 4666 
L 3928 4666 
L 3928 4134 
L 2272 4134 
L 2272 0 
L 1638 0 
L 1638 4134 
L -19 4134 
L -19 4666 
z
" transform="scale(0.015625)"/>
       <path id="DejaVuSans-61" d="M 2194 1759 
Q 1497 1759 1228 1600 
Q 959 1441 959 1056 
Q 959 750 1161 570 
Q 1363 391 1709 391 
Q 2188 391 2477 730 
Q 2766 1069 2766 1631 
L 2766 1759 
L 2194 1759 
z
M 3341 1997 
L 3341 0 
L 2766 0 
L 2766 531 
Q 2569 213 2275 61 
Q 1981 -91 1556 -91 
Q 1019 -91 701 211 
Q 384 513 384 1019 
Q 384 1609 779 1909 
Q 1175 2209 1959 2209 
L 2766 2209 
L 2766 2266 
Q 2766 2663 2505 2880 
Q 2244 3097 1772 3097 
Q 1472 3097 1187 3025 
Q 903 2953 641 2809 
L 641 3341 
Q 956 3463 1253 3523 
Q 1550 3584 1831 3584 
Q 2591 3584 2966 3190 
Q 3341 2797 3341 1997 
z
" transform="scale(0.015625)"/>
       <path id="DejaVuSans-6c" d="M 603 4863 
L 1178 4863 
L 1178 0 
L 603 0 
L 603 4863 
z
" transform="scale(0.015625)"/>
       <path id="DejaVuSans-20" transform="scale(0.015625)"/>
       <path id="DejaVuSans-69" d="M 603 3500 
L 1178 3500 
L 1178 0 
L 603 0 
L 603 3500 
z
M 603 4863 
L 1178 4863 
L 1178 4134 
L 603 4134 
L 603 4863 
z
" transform="scale(0.015625)"/>
       <path id="DejaVuSans-65" d="M 3597 1894 
L 3597 1613 
L 953 1613 
Q 991 1019 1311 708 
Q 1631 397 2203 397 
Q 2534 397 2845 478 
Q 3156 559 3463 722 
L 3463 178 
Q 3153 47 2828 -22 
Q 2503 -91 2169 -91 
Q 1331 -91 842 396 
Q 353 884 353 1716 
Q 353 2575 817 3079 
Q 1281 3584 2069 3584 
Q 2775 3584 3186 3129 
Q 3597 2675 3597 1894 
z
M 3022 2063 
Q 3016 2534 2758 2815 
Q 2500 3097 2075 3097 
Q 1594 3097 1305 2825 
Q 1016 2553 972 2059 
L 3022 2063 
z
" transform="scale(0.015625)"/>
       <path id="DejaVuSans-28" d="M 1984 4856 
Q 1566 4138 1362 3434 
Q 1159 2731 1159 2009 
Q 1159 1288 1364 580 
Q 1569 -128 1984 -844 
L 1484 -844 
Q 1016 -109 783 600 
Q 550 1309 550 2009 
Q 550 2706 781 3412 
Q 1013 4119 1484 4856 
L 1984 4856 
z
" transform="scale(0.015625)"/>
       <path id="DejaVuSans-73" d="M 2834 3397 
L 2834 2853 
Q 2591 2978 2328 3040 
Q 2066 3103 1784 3103 
Q 1356 3103 1142 2972 
Q 928 2841 928 2578 
Q 928 2378 1081 2264 
Q 1234 2150 1697 2047 
L 1894 2003 
Q 2506 1872 2764 1633 
Q 3022 1394 3022 966 
Q 3022 478 2636 193 
Q 2250 -91 1575 -91 
Q 1294 -91 989 -36 
Q 684 19 347 128 
L 347 722 
Q 666 556 975 473 
Q 1284 391 1588 391 
Q 1994 391 2212 530 
Q 2431 669 2431 922 
Q 2431 1156 2273 1281 
Q 2116 1406 1581 1522 
L 1381 1569 
Q 847 1681 609 1914 
Q 372 2147 372 2553 
Q 372 3047 722 3315 
Q 1072 3584 1716 3584 
Q 2034 3584 2315 3537 
Q 2597 3491 2834 3397 
z
" transform="scale(0.015625)"/>
       <path id="DejaVuSans-29" d="M 513 4856 
L 1013 4856 
Q 1481 4119 1714 3412 
Q 1947 2706 1947 2009 
Q 1947 1309 1714 600 
Q 1481 -109 1013 -844 
L 513 -844 
Q 928 -128 1133 580 
Q 1338 1288 1338 2009 
Q 1338 2731 1133 3434 
Q 928 4138 513 4856 
z
" transform="scale(0.015625)"/>
      </defs>
      <use xlink:href="#DejaVuSans-54"/>
      <use xlink:href="#DejaVuSans-6f" x="44.083984"/>
      <use xlink:href="#DejaVuSans-74" x="105.265625"/>
      <use xlink:href="#DejaVuSans-61" x="144.474609"/>
      <use xlink:href="#DejaVuSans-6c" x="205.753906"/>
      <use xlink:href="#DejaVuSans-20" x="233.537109"/>
      <use xlink:href="#DejaVuSans-74" x="265.324219"/>
      <use xlink:href="#DejaVuSans-69" x="304.533203"/>
      <use xlink:href="#DejaVuSans-6d" x="332.316406"/>
      <use xlink:href="#DejaVuSans-65" x="429.728516"/>
      <use xlink:href="#DejaVuSans-20" x="491.251953"/>
      <use xlink:href="#DejaVuSans-28" x="523.039062"/>
      <use xlink:href="#DejaVuSans-6d" x="562.052734"/>
      <use xlink:href="#DejaVuSans-73" x="659.464844"/>
      <use xlink:href="#DejaVuSans-29" x="711.564453"/>
     </g>
    </g>
   </g>
   <g id="LineCollection_1">
    <path d="M 80.932356 283.598571 
L 80.932356 278.960476 
" clip-path="url(#pd5c2a0cea8)" style="fill: none; stroke: #000000; stroke-width: 1.5"/>
    <path d="M 118.24961 278.960476 
L 118.24961 267.829048 
" clip-path="url(#pd5c2a0cea8)" style="fill: none; stroke: #000000; stroke-width: 1.5"/>
    <path d="M 155.566865 269.220476 
L 155.566865 258.089048 
" clip-path="url(#pd5c2a0cea8)" style="fill: none; stroke: #000000; stroke-width: 1.5"/>
    <path d="M 192.884119 258.552857 
L 192.884119 242.783333 
" clip-path="url(#pd5c2a0cea8)" style="fill: none; stroke: #000000; stroke-width: 1.5"/>
    <path d="M 230.201373 245.102381 
L 230.201373 222.839524 
" clip-path="url(#pd5c2a0cea8)" style="fill: none; stroke: #000000; stroke-width: 1.5"/>
    <path d="M 267.518627 268.756667 
L 267.518627 204.750952 
" clip-path="url(#pd5c2a0cea8)" style="fill: none; stroke: #000000; stroke-width: 1.5"/>
    <path d="M 304.835881 235.362381 
L 304.835881 207.53381 
" clip-path="url(#pd5c2a0cea8)" style="fill: none; stroke: #000000; stroke-width: 1.5"/>
    <path d="M 342.153135 233.043333 
L 342.153135 201.504286 
" clip-path="url(#pd5c2a0cea8)" style="fill: none; stroke: #000000; stroke-width: 1.5"/>
    <path d="M 379.47039 213.563333 
L 379.47039 181.096667 
" clip-path="url(#pd5c2a0cea8)" style="fill: none; stroke: #000000; stroke-width: 1.5"/>
    <path d="M 416.787644 203.823333 
L 416.787644 163.008095 
" clip-path="url(#pd5c2a0cea8)" style="fill: none; stroke: #000000; stroke-width: 1.5"/>
   </g>
   <g id="line2d_23">
    <defs>
     <path id="mdb26157a2b" d="M 3 0 
L -3 -0 
" style="stroke: #000000"/>
    </defs>
    <g clip-path="url(#pd5c2a0cea8)">
     <use xlink:href="#mdb26157a2b" x="80.932356" y="283.598571" style="stroke: #000000"/>
     <use xlink:href="#mdb26157a2b" x="118.24961" y="278.960476" style="stroke: #000000"/>
     <use xlink:href="#mdb26157a2b" x="155.566865" y="269.220476" style="stroke: #000000"/>
     <use xlink:href="#mdb26157a2b" x="192.884119" y="258.552857" style="stroke: #000000"/>
     <use xlink:href="#mdb26157a2b" x="230.201373" y="245.102381" style="stroke: #000000"/>
     <use xlink:href="#mdb26157a2b" x="267.518627" y="268.756667" style="stroke: #000000"/>
     <use xlink:href="#mdb26157a2b" x="304.835881" y="235.362381" style="stroke: #000000"/>
     <use xlink:href="#mdb26157a2b" x="342.153135" y="233.043333" style="stroke: #000000"/>
     <use xlink:href="#mdb26157a2b" x="379.47039" y="213.563333" style="stroke: #000000"/>
     <use xlink:href="#mdb26157a2b" x="416.787644" y="203.823333" style="stroke: #000000"/>
    </g>
   </g>
   <g id="line2d_24">
    <g clip-path="url(#pd5c2a0cea8)">
     <use xlink:href="#mdb26157a2b" x="80.932356" y="278.960476" style="stroke: #000000"/>
     <use xlink:href="#mdb26157a2b" x="118.24961" y="267.829048" style="stroke: #000000"/>
     <use xlink:href="#mdb26157a2b" x="155.566865" y="258.089048" style="stroke: #000000"/>
     <use xlink:href="#mdb26157a2b" x="192.884119" y="242.783333" style="stroke: #000000"/>
     <use xlink:href="#mdb26157a2b" x="230.201373" y="222.839524" style="stroke: #000000"/>
     <use xlink:href="#mdb26157a2b" x="267.518627" y="204.750952" style="stroke: #000000"/>
     <use xlink:href="#mdb26157a2b" x="304.835881" y="207.53381" style="stroke: #000000"/>
     <use xlink:href="#mdb26157a2b" x="342.153135" y="201.504286" style="stroke: #000000"/>
     <use xlink:href="#mdb26157a2b" x="379.47039" y="181.096667" style="stroke: #000000"/>
     <use xlink:href="#mdb26157a2b" x="416.787644" y="163.008095" style="stroke: #000000"/>
    </g>
   </g>
   <g id="LineCollection_2">
    <path d="M 80.932356 266.901429 
L 80.932356 259.480476 
" clip-path="url(#pd5c2a0cea8)" style="fill: none; stroke: #000000; stroke-width: 1.5"/>
    <path d="M 118.24961 249.276667 
L 118.24961 235.362381 
" clip-path="url(#pd5c2a0cea8)" style="fill: none; stroke: #000000; stroke-width: 1.5"/>
    <path d="M 155.566865 227.941429 
L 155.566865 211.244286 
" clip-path="url(#pd5c2a0cea8)" style="fill: none; stroke: #000000; stroke-width: 1.5"/>
    <path d="M 192.884119 206.142381 
L 192.884119 183.879524 
" clip-path="url(#pd5c2a0cea8)" style="fill: none; stroke: #000000; stroke-width: 1.5"/>
    <path d="M 230.201373 171.356667 
L 230.201373 141.672857 
" clip-path="url(#pd5c2a0cea8)" style="fill: none; stroke: #000000; stroke-width: 1.5"/>
    <path d="M 267.518627 181.096667 
L 267.518627 152.340476 
" clip-path="url(#pd5c2a0cea8)" style="fill: none; stroke: #000000; stroke-width: 1.5"/>
    <path d="M 304.835881 158.37 
L 304.835881 127.758571 
" clip-path="url(#pd5c2a0cea8)" style="fill: none; stroke: #000000; stroke-width: 1.5"/>
    <path d="M 342.153135 149.557619 
L 342.153135 116.163333 
" clip-path="url(#pd5c2a0cea8)" style="fill: none; stroke: #000000; stroke-width: 1.5"/>
    <path d="M 379.47039 122.656667 
L 379.47039 59.578571 
" clip-path="url(#pd5c2a0cea8)" style="fill: none; stroke: #000000; stroke-width: 1.5"/>
    <path d="M 416.787644 83.232857 
L 416.787644 39.634762 
" clip-path="url(#pd5c2a0cea8)" style="fill: none; stroke: #000000; stroke-width: 1.5"/>
   </g>
   <g id="line2d_25">
    <g clip-path="url(#pd5c2a0cea8)">
     <use xlink:href="#mdb26157a2b" x="80.932356" y="266.901429" style="stroke: #000000"/>
     <use xlink:href="#mdb26157a2b" x="118.24961" y="249.276667" style="stroke: #000000"/>
     <use xlink:href="#mdb26157a2b" x="155.566865" y="227.941429" style="stroke: #000000"/>
     <use xlink:href="#mdb26157a2b" x="192.884119" y="206.142381" style="stroke: #000000"/>
     <use xlink:href="#mdb26157a2b" x="230.201373" y="171.356667" style="stroke: #000000"/>
     <use xlink:href="#mdb26157a2b" x="267.518627" y="181.096667" style="stroke: #000000"/>
     <use xlink:href="#mdb26157a2b" x="304.835881" y="158.37" style="stroke: #000000"/>
     <use xlink:href="#mdb26157a2b" x="342.153135" y="149.557619" style="stroke: #000000"/>
     <use xlink:href="#mdb26157a2b" x="379.47039" y="122.656667" style="stroke: #000000"/>
     <use xlink:href="#mdb26157a2b" x="416.787644" y="83.232857" style="stroke: #000000"/>
    </g>
   </g>
   <g id="line2d_26">
    <g clip-path="url(#pd5c2a0cea8)">
     <use xlink:href="#mdb26157a2b" x="80.932356" y="259.480476" style="stroke: #000000"/>
     <use xlink:href="#mdb26157a2b" x="118.24961" y="235.362381" style="stroke: #000000"/>
     <use xlink:href="#mdb26157a2b" x="155.566865" y="211.244286" style="stroke: #000000"/>
     <use xlink:href="#mdb26157a2b" x="192.884119" y="183.879524" style="stroke: #000000"/>
     <use xlink:href="#mdb26157a2b" x="230.201373" y="141.672857" style="stroke: #000000"/>
     <use xlink:href="#mdb26157a2b" x="267.518627" y="152.340476" style="stroke: #000000"/>
     <use xlink:href="#mdb26157a2b" x="304.835881" y="127.758571" style="stroke: #000000"/>
     <use xlink:href="#mdb26157a2b" x="342.153135" y="116.163333" style="stroke: #000000"/>
     <use xlink:href="#mdb26157a2b" x="379.47039" y="59.578571" style="stroke: #000000"/>
     <use xlink:href="#mdb26157a2b" x="416.787644" y="39.634762" style="stroke: #000000"/>
    </g>
   </g>
   <g id="patch_23">
    <path d="M 47.72 294.73 
L 47.72 26.88 
" style="fill: none; stroke: #000000; stroke-width: 0.8; stroke-linejoin: miter; stroke-linecap: square"/>
   </g>
   <g id="patch_24">
    <path d="M 450 294.73 
L 450 26.88 
" style="fill: none; stroke: #000000; stroke-width: 0.8; stroke-linejoin: miter; stroke-linecap: square"/>
   </g>
   <g id="patch_25">
    <path d="M 47.72 294.73 
L 450 294.73 
" style="fill: none; stroke: #000000; stroke-width: 0.8; stroke-linejoin: miter; stroke-linecap: square"/>
   </g>
   <g id="patch_26">
    <path d="M 47.72 26.88 
L 450 26.88 
" style="fill: none; stroke: #000000; stroke-width: 0.8; stroke-linejoin: miter; stroke-linecap: square"/>
   </g>
   <g id="text_19">
    <!-- 0.03 -->
    <g transform="translate(69.799544 290.764137)scale(0.1 -0.1)">
     <use xlink:href="#DejaVuSans-30"/>
     <use xlink:href="#DejaVuSans-2e" x="63.623047"/>
     <use xlink:href="#DejaVuSans-30" x="95.410156"/>
     <use xlink:href="#DejaVuSans-33" x="159.033203"/>
    </g>
   </g>
   <g id="text_20">
    <!-- 0.05 -->
    <g transform="translate(107.116798 286.821756)scale(0.1 -0.1)">
     <use xlink:href="#DejaVuSans-30"/>
     <use xlink:href="#DejaVuSans-2e" x="63.623047"/>
     <use xlink:href="#DejaVuSans-30" x="95.410156"/>
     <use xlink:href="#DejaVuSans-35" x="159.033203"/>
    </g>
   </g>
   <g id="text_21">
    <!-- 0.07 -->
    <g transform="translate(144.434052 281.951756)scale(0.1 -0.1)">
     <use xlink:href="#DejaVuSans-30"/>
     <use xlink:href="#DejaVuSans-2e" x="63.623047"/>
     <use xlink:href="#DejaVuSans-30" x="95.410156"/>
     <use xlink:href="#DejaVuSans-37" x="159.033203"/>
    </g>
   </g>
   <g id="text_22">
    <!-- 0.10 -->
    <g transform="translate(181.751306 275.458423)scale(0.1 -0.1)">
     <use xlink:href="#DejaVuSans-30"/>
     <use xlink:href="#DejaVuSans-2e" x="63.623047"/>
     <use xlink:href="#DejaVuSans-31" x="95.410156"/>
     <use xlink:href="#DejaVuSans-30" x="159.033203"/>
    </g>
   </g>
   <g id="text_23">
    <!-- 0.13 -->
    <g transform="translate(219.06856 267.109851)scale(0.1 -0.1)">
     <use xlink:href="#DejaVuSans-30"/>
     <use xlink:href="#DejaVuSans-2e" x="63.623047"/>
     <use xlink:href="#DejaVuSans-31" x="95.410156"/>
     <use xlink:href="#DejaVuSans-33" x="159.033203"/>
    </g>
   </g>
   <g id="text_24">
    <!-- 0.12 -->
    <g transform="translate(256.385815 268.50128)scale(0.1 -0.1)">
     <use xlink:href="#DejaVuSans-30"/>
     <use xlink:href="#DejaVuSans-2e" x="63.623047"/>
     <use xlink:href="#DejaVuSans-31" x="95.410156"/>
     <use xlink:href="#DejaVuSans-32" x="159.033203"/>
    </g>
   </g>
   <g id="text_25">
    <!-- 0.16 -->
    <g transform="translate(293.703069 260.848423)scale(0.1 -0.1)">
     <use xlink:href="#DejaVuSans-30"/>
     <use xlink:href="#DejaVuSans-2e" x="63.623047"/>
     <use xlink:href="#DejaVuSans-31" x="95.410156"/>
     <use xlink:href="#DejaVuSans-36" x="159.033203"/>
    </g>
   </g>
   <g id="text_26">
    <!-- 0.17 -->
    <g transform="translate(331.020323 258.76128)scale(0.1 -0.1)">
     <use xlink:href="#DejaVuSans-30"/>
     <use xlink:href="#DejaVuSans-2e" x="63.623047"/>
     <use xlink:href="#DejaVuSans-31" x="95.410156"/>
     <use xlink:href="#DejaVuSans-37" x="159.033203"/>
    </g>
   </g>
   <g id="text_27">
    <!-- 0.21 -->
    <g transform="translate(368.337577 248.789375)scale(0.1 -0.1)">
     <use xlink:href="#DejaVuSans-30"/>
     <use xlink:href="#DejaVuSans-2e" x="63.623047"/>
     <use xlink:href="#DejaVuSans-32" x="95.410156"/>
     <use xlink:href="#DejaVuSans-31" x="159.033203"/>
    </g>
   </g>
   <g id="text_28">
    <!-- 0.24 -->
    <g transform="translate(405.654831 241.832232)scale(0.1 -0.1)">
     <use xlink:href="#DejaVuSans-30"/>
     <use xlink:href="#DejaVuSans-2e" x="63.623047"/>
     <use xlink:href="#DejaVuSans-32" x="95.410156"/>
     <use xlink:href="#DejaVuSans-34" x="159.033203"/>
    </g>
   </g>
   <g id="text_29">
    <!-- 0.04 -->
    <g transform="translate(69.799544 274.994613)scale(0.1 -0.1)">
     <use xlink:href="#DejaVuSans-30"/>
     <use xlink:href="#DejaVuSans-2e" x="63.623047"/>
     <use xlink:href="#DejaVuSans-30" x="95.410156"/>
     <use xlink:href="#DejaVuSans-34" x="159.033203"/>
    </g>
   </g>
   <g id="text_30">
    <!-- 0.07 -->
    <g transform="translate(107.116798 260.616518)scale(0.1 -0.1)">
     <use xlink:href="#DejaVuSans-30"/>
     <use xlink:href="#DejaVuSans-2e" x="63.623047"/>
     <use xlink:href="#DejaVuSans-30" x="95.410156"/>
     <use xlink:href="#DejaVuSans-37" x="159.033203"/>
    </g>
   </g>
   <g id="text_31">
    <!-- 0.10 -->
    <g transform="translate(144.434052 244.383185)scale(0.1 -0.1)">
     <use xlink:href="#DejaVuSans-30"/>
     <use xlink:href="#DejaVuSans-2e" x="63.623047"/>
     <use xlink:href="#DejaVuSans-31" x="95.410156"/>
     <use xlink:href="#DejaVuSans-30" x="159.033203"/>
    </g>
   </g>
   <g id="text_32">
    <!-- 0.12 -->
    <g transform="translate(181.751306 225.598899)scale(0.1 -0.1)">
     <use xlink:href="#DejaVuSans-30"/>
     <use xlink:href="#DejaVuSans-2e" x="63.623047"/>
     <use xlink:href="#DejaVuSans-31" x="95.410156"/>
     <use xlink:href="#DejaVuSans-32" x="159.033203"/>
    </g>
   </g>
   <g id="text_33">
    <!-- 0.17 -->
    <g transform="translate(219.06856 198.002232)scale(0.1 -0.1)">
     <use xlink:href="#DejaVuSans-30"/>
     <use xlink:href="#DejaVuSans-2e" x="63.623047"/>
     <use xlink:href="#DejaVuSans-31" x="95.410156"/>
     <use xlink:href="#DejaVuSans-37" x="159.033203"/>
    </g>
   </g>
   <g id="text_34">
    <!-- 0.15 -->
    <g transform="translate(256.385815 204.495565)scale(0.1 -0.1)">
     <use xlink:href="#DejaVuSans-30"/>
     <use xlink:href="#DejaVuSans-2e" x="63.623047"/>
     <use xlink:href="#DejaVuSans-31" x="95.410156"/>
     <use xlink:href="#DejaVuSans-35" x="159.033203"/>
    </g>
   </g>
   <g id="text_35">
    <!-- 0.17 -->
    <g transform="translate(293.703069 185.015565)scale(0.1 -0.1)">
     <use xlink:href="#DejaVuSans-30"/>
     <use xlink:href="#DejaVuSans-2e" x="63.623047"/>
     <use xlink:href="#DejaVuSans-31" x="95.410156"/>
     <use xlink:href="#DejaVuSans-37" x="159.033203"/>
    </g>
   </g>
   <g id="text_36">
    <!-- 0.18 -->
    <g transform="translate(331.020323 177.826518)scale(0.1 -0.1)">
     <use xlink:href="#DejaVuSans-30"/>
     <use xlink:href="#DejaVuSans-2e" x="63.623047"/>
     <use xlink:href="#DejaVuSans-31" x="95.410156"/>
     <use xlink:href="#DejaVuSans-38" x="159.033203"/>
    </g>
   </g>
   <g id="text_37">
    <!-- 0.23 -->
    <g transform="translate(368.337577 146.983185)scale(0.1 -0.1)">
     <use xlink:href="#DejaVuSans-30"/>
     <use xlink:href="#DejaVuSans-2e" x="63.623047"/>
     <use xlink:href="#DejaVuSans-32" x="95.410156"/>
     <use xlink:href="#DejaVuSans-33" x="159.033203"/>
    </g>
   </g>
   <g id="text_38">
    <!-- 0.26 -->
    <g transform="translate(405.654831 125.184137)scale(0.1 -0.1)">
     <use xlink:href="#DejaVuSans-30"/>
     <use xlink:href="#DejaVuSans-2e" x="63.623047"/>
     <use xlink:href="#DejaVuSans-32" x="95.410156"/>
     <use xlink:href="#DejaVuSans-36" x="159.033203"/>
    </g>
   </g>
   <g id="text_39">
    <!-- Tessellation time for cubic_bezier_curve (1000 trials) -->
    <g transform="translate(90.667187 20.88)scale(0.12 -0.12)">
     <defs>
      <path id="DejaVuSans-66" d="M 2375 4863 
L 2375 4384 
L 1825 4384 
Q 1516 4384 1395 4259 
Q 1275 4134 1275 3809 
L 1275 3500 
L 2222 3500 
L 2222 3053 
L 1275 3053 
L 1275 0 
L 697 0 
L 697 3053 
L 147 3053 
L 147 3500 
L 697 3500 
L 697 3744 
Q 697 4328 969 4595 
Q 1241 4863 1831 4863 
L 2375 4863 
z
" transform="scale(0.015625)"/>
      <path id="DejaVuSans-72" d="M 2631 2963 
Q 2534 3019 2420 3045 
Q 2306 3072 2169 3072 
Q 1681 3072 1420 2755 
Q 1159 2438 1159 1844 
L 1159 0 
L 581 0 
L 581 3500 
L 1159 3500 
L 1159 2956 
Q 1341 3275 1631 3429 
Q 1922 3584 2338 3584 
Q 2397 3584 2469 3576 
Q 2541 3569 2628 3553 
L 2631 2963 
z
" transform="scale(0.015625)"/>
      <path id="DejaVuSans-63" d="M 3122 3366 
L 3122 2828 
Q 2878 2963 2633 3030 
Q 2388 3097 2138 3097 
Q 1578 3097 1268 2742 
Q 959 2388 959 1747 
Q 959 1106 1268 751 
Q 1578 397 2138 397 
Q 2388 397 2633 464 
Q 2878 531 3122 666 
L 3122 134 
Q 2881 22 2623 -34 
Q 2366 -91 2075 -91 
Q 1284 -91 818 406 
Q 353 903 353 1747 
Q 353 2603 823 3093 
Q 1294 3584 2113 3584 
Q 2378 3584 2631 3529 
Q 2884 3475 3122 3366 
z
" transform="scale(0.015625)"/>
      <path id="DejaVuSans-62" d="M 3116 1747 
Q 3116 2381 2855 2742 
Q 2594 3103 2138 3103 
Q 1681 3103 1420 2742 
Q 1159 2381 1159 1747 
Q 1159 1113 1420 752 
Q 1681 391 2138 391 
Q 2594 391 2855 752 
Q 3116 1113 3116 1747 
z
M 1159 2969 
Q 1341 3281 1617 3432 
Q 1894 3584 2278 3584 
Q 2916 3584 3314 3078 
Q 3713 2572 3713 1747 
Q 3713 922 3314 415 
Q 2916 -91 2278 -91 
Q 1894 -91 1617 61 
Q 1341 213 1159 525 
L 1159 0 
L 581 0 
L 581 4863 
L 1159 4863 
L 1159 2969 
z
" transform="scale(0.015625)"/>
      <path id="DejaVuSans-5f" d="M 3263 -1063 
L 3263 -1509 
L -63 -1509 
L -63 -1063 
L 3263 -1063 
z
" transform="scale(0.015625)"/>
      <path id="DejaVuSans-7a" d="M 353 3500 
L 3084 3500 
L 3084 2975 
L 922 459 
L 3084 459 
L 3084 0 
L 275 0 
L 275 525 
L 2438 3041 
L 353 3041 
L 353 3500 
z
" transform="scale(0.015625)"/>
      <path id="DejaVuSans-76" d="M 191 3500 
L 800 3500 
L 1894 563 
L 2988 3500 
L 3597 3500 
L 2284 0 
L 1503 0 
L 191 3500 
z
" transform="scale(0.015625)"/>
     </defs>
     <use xlink:href="#DejaVuSans-54"/>
     <use xlink:href="#DejaVuSans-65" x="44.083984"/>
     <use xlink:href="#DejaVuSans-73" x="105.607422"/>
     <use xlink:href="#DejaVuSans-73" x="157.707031"/>
     <use xlink:href="#DejaVuSans-65" x="209.806641"/>
     <use xlink:href="#DejaVuSans-6c" x="271.330078"/>
     <use xlink:href="#DejaVuSans-6c" x="299.113281"/>
     <use xlink:href="#DejaVuSans-61" x="326.896484"/>
     <use xlink:href="#DejaVuSans-74" x="388.175781"/>
     <use xlink:href="#DejaVuSans-69" x="427.384766"/>
     <use xlink:href="#DejaVuSans-6f" x="455.167969"/>
     <use xlink:href="#DejaVuSans-6e" x="516.349609"/>
     <use xlink:href="#DejaVuSans-20" x="579.728516"/>
     <use xlink:href="#DejaVuSans-74" x="611.515625"/>
     <use xlink:href="#DejaVuSans-69" x="650.724609"/>
     <use xlink:href="#DejaVuSans-6d" x="678.507812"/>
     <use xlink:href="#DejaVuSans-65" x="775.919922"/>
     <use xlink:href="#DejaVuSans-20" x="837.443359"/>
     <use xlink:href="#DejaVuSans-66" x="869.230469"/>
     <use xlink:href="#DejaVuSans-6f" x="904.435547"/>
     <use xlink:href="#DejaVuSans-72" x="965.617188"/>
     <use xlink:href="#DejaVuSans-20" x="1006.730469"/>
     <use xlink:href="#DejaVuSans-63" x="1038.517578"/>
     <use xlink:href="#DejaVuSans-75" x="1093.498047"/>
     <use xlink:href="#DejaVuSans-62" x="1156.876953"/>
     <use xlink:href="#DejaVuSans-69" x="1220.353516"/>
     <use xlink:href="#DejaVuSans-63" x="1248.136719"/>
     <use xlink:href="#DejaVuSans-5f" x="1303.117188"/>
     <use xlink:href="#DejaVuSans-62" x="1353.117188"/>
     <use xlink:href="#DejaVuSans-65" x="1416.59375"/>
     <use xlink:href="#DejaVuSans-7a" x="1478.117188"/>
     <use xlink:href="#DejaVuSans-69" x="1530.607422"/>
     <use xlink:href="#DejaVuSans-65" x="1558.390625"/>
     <use xlink:href="#DejaVuSans-72" x="1619.914062"/>
     <use xlink:href="#DejaVuSans-5f" x="1661.027344"/>
     <use xlink:href="#DejaVuSans-63" x="1711.027344"/>
     <use xlink:href="#DejaVuSans-75" x="1766.007812"/>
     <use xlink:href="#DejaVuSans-72" x="1829.386719"/>
     <use xlink:href="#DejaVuSans-76" x="1870.5"/>
     <use xlink:href="#DejaVuSans-65" x="1929.679688"/>
     <use xlink:href="#DejaVuSans-20" x="1991.203125"/>
     <use xlink:href="#DejaVuSans-28" x="2022.990234"/>
     <use xlink:href="#DejaVuSans-31" x="2062.003906"/>
     <use xlink:href="#DejaVuSans-30" x="2125.626953"/>
     <use xlink:href="#DejaVuSans-30" x="2189.25"/>
     <use xlink:href="#DejaVuSans-30" x="2252.873047"/>
     <use xlink:href="#DejaVuSans-20" x="2316.496094"/>
     <use xlink:href="#DejaVuSans-74" x="2348.283203"/>
     <use xlink:href="#DejaVuSans-72" x="2387.492188"/>
     <use xlink:href="#DejaVuSans-69" x="2428.605469"/>
     <use xlink:href="#DejaVuSans-61" x="2456.388672"/>
     <use xlink:href="#DejaVuSans-6c" x="2517.667969"/>
     <use xlink:href="#DejaVuSans-73" x="2545.451172"/>
     <use xlink:href="#DejaVuSans-29" x="2597.550781"/>
    </g>
   </g>
   <g id="legend_1">
    <g id="patch_27">
     <path d="M 54.72 64.23625 
L 147.699688 64.23625 
Q 149.699688 64.23625 149.699688 62.23625 
L 149.699688 33.88 
Q 149.699688 31.88 147.699688 31.88 
L 54.72 31.88 
Q 52.72 31.88 52.72 33.88 
L 52.72 62.23625 
Q 52.72 64.23625 54.72 64.23625 
z
" style="fill: #ffffff; opacity: 0.8; stroke: #cccccc; stroke-linejoin: miter"/>
    </g>
    <g id="patch_28">
     <path d="M 56.72 43.478437 
L 76.72 43.478437 
L 76.72 36.478437 
L 56.72 36.478437 
z
" style="fill: #1f77b4; opacity: 0.5"/>
    </g>
    <g id="text_40">
     <!-- Initialization -->
     <g transform="translate(84.72 43.478437)scale(0.1 -0.1)">
      <defs>
       <path id="DejaVuSans-49" d="M 628 4666 
L 1259 4666 
L 1259 0 
L 628 0 
L 628 4666 
z
" transform="scale(0.015625)"/>
      </defs>
      <use xlink:href="#DejaVuSans-49"/>
      <use xlink:href="#DejaVuSans-6e" x="29.492188"/>
      <use xlink:href="#DejaVuSans-69" x="92.871094"/>
      <use xlink:href="#DejaVuSans-74" x="120.654297"/>
      <use xlink:href="#DejaVuSans-69" x="159.863281"/>
      <use xlink:href="#DejaVuSans-61" x="187.646484"/>
      <use xlink:href="#DejaVuSans-6c" x="248.925781"/>
      <use xlink:href="#DejaVuSans-69" x="276.708984"/>
      <use xlink:href="#DejaVuSans-7a" x="304.492188"/>
      <use xlink:href="#DejaVuSans-61" x="356.982422"/>
      <use xlink:href="#DejaVuSans-74" x="418.261719"/>
      <use xlink:href="#DejaVuSans-69" x="457.470703"/>
      <use xlink:href="#DejaVuSans-6f" x="485.253906"/>
      <use xlink:href="#DejaVuSans-6e" x="546.435547"/>
     </g>
    </g>
    <g id="patch_29">
     <path d="M 56.72 58.156563 
L 76.72 58.156563 
L 76.72 51.156563 
L 56.72 51.156563 
z
" style="fill: #ff7f0e; opacity: 0.5"/>
    </g>
    <g id="text_41">
     <!-- Tessellation -->
     <g transform="translate(84.72 58.156563)scale(0.1 -0.1)">
      <use xlink:href="#DejaVuSans-54"/>
      <use xlink:href="#DejaVuSans-65" x="44.083984"/>
      <use xlink:href="#DejaVuSans-73" x="105.607422"/>
      <use xlink:href="#DejaVuSans-73" x="157.707031"/>
      <use xlink:href="#DejaVuSans-65" x="209.806641"/>
      <use xlink:href="#DejaVuSans-6c" x="271.330078"/>
      <use xlink:href="#DejaVuSans-6c" x="299.113281"/>
      <use xlink:href="#DejaVuSans-61" x="326.896484"/>
      <use xlink:href="#DejaVuSans-74" x="388.175781"/>
      <use xlink:href="#DejaVuSans-69" x="427.384766"/>
      <use xlink:href="#DejaVuSans-6f" x="455.167969"/>
      <use xlink:href="#DejaVuSans-6e" x="516.349609"/>
     </g>
    </g>
   </g>
  </g>
 </g>
 <defs>
  <clipPath id="pd5c2a0cea8">
   <rect x="47.72" y="26.88" width="402.28" height="267.85"/>
  </clipPath>
 </defs>
</svg>
